<svg width="16" height="28" viewBox="0 0 16 28" fill="none" xmlns="http://www.w3.org/2000/svg">
<path id="Logo Symbols" d="M1.11852 13.111L7.65735 1.27233C7.82857 0.962315 8.07686 0.701705 8.37823 0.515677C9.60687 -0.242752 11.2143 0.46593 11.4831 1.88456L15.5876 23.5473C15.8826 25.1043 15.154 26.6763 13.7753 27.4576C12.5554 28.1489 11.0497 28.0917 9.8858 27.31L1.35316 21.5793C0.211917 20.8128 0.476857 19.0641 1.79393 18.6701L3.4153 18.185C4.09232 17.9824 4.82401 18.0852 5.41907 18.4664L8.92093 20.7095L7.91853 10.1127L4.90745 15.2642C4.63355 15.7329 4.19462 16.0824 3.67659 16.2444C1.80115 16.831 0.168464 14.8311 1.11852 13.111Z" fill="#FF6915"/>
</svg>
