<svg width="84" height="84" viewBox="0 0 84 84" fill="none" xmlns="http://www.w3.org/2000/svg">
<g id="9mobile Logo">
<path id="Vector" fill-rule="evenodd" clip-rule="evenodd" d="M27.7033 74.7793C28.7728 74.7793 29.5544 75.0058 30.048 75.4588C30.5416 75.9119 30.7887 76.6164 30.7893 77.5725V82.6972H29.185V77.7893C29.185 76.7087 28.5791 76.1684 27.3673 76.1684C26.8439 76.1641 26.33 76.3086 25.8856 76.5853C25.9625 76.9086 25.9986 77.2403 25.9932 77.5725V82.6972H24.3889V77.7893C24.3889 76.7087 23.783 76.1684 22.5712 76.1684C22.0183 76.1689 21.4699 76.2683 20.9519 76.4619V82.6972H19.3485V75.5822C19.8794 75.3183 20.4413 75.1222 21.0211 74.9986C21.6396 74.8544 22.2722 74.7794 22.9072 74.7751C23.9078 74.7751 24.6513 74.9697 25.1377 75.3588C25.9388 74.9761 26.8155 74.7781 27.7033 74.7793ZM36.2858 82.9323C35.0629 82.9323 34.1437 82.5824 33.5284 81.8825C32.913 81.1827 32.605 80.164 32.6045 78.8266C32.6045 76.12 33.8274 74.767 36.2733 74.7676C37.5057 74.7676 38.4323 75.1147 39.0532 75.809C39.6741 76.5033 39.9849 77.5092 39.9854 78.8266C39.9854 80.1429 39.6647 81.1563 39.0232 81.8667C38.3817 82.5771 37.4692 82.9323 36.2858 82.9323ZM36.2699 81.5582C37.6758 81.5582 38.3784 80.6477 38.3778 78.8266C38.3778 77.9211 38.2111 77.2446 37.8775 76.7971C37.544 76.3496 37.0093 76.1256 36.2733 76.125C35.5301 76.125 34.9981 76.3541 34.6774 76.8121C34.3566 77.2701 34.1962 77.9417 34.1962 78.8266C34.1962 79.711 34.3616 80.3875 34.6924 80.8561C35.0231 81.3247 35.549 81.5576 36.2699 81.5548V81.5582ZM45.341 74.7826C46.4817 74.7826 47.3472 75.1272 47.9375 75.8165C48.5279 76.5058 48.8239 77.4822 48.8255 78.7457C48.8255 80.2688 48.4717 81.3467 47.7641 81.9793C47.0565 82.6119 46.157 82.9295 45.0659 82.9323C42.8763 82.9323 41.7815 82.3459 41.7815 81.173V71.8467H43.3707V75.2612C43.6903 75.1085 44.0259 74.9919 44.3713 74.9135C44.6884 74.8321 45.0137 74.7871 45.341 74.7793V74.7826ZM44.9433 81.5273C45.7771 81.5273 46.3608 81.2855 46.6943 80.8019C47.0278 80.3183 47.1946 79.6546 47.1946 78.8108C47.1946 77.9469 47.0189 77.2885 46.6676 76.8355C46.3163 76.3824 45.7946 76.1562 45.1025 76.1567C44.801 76.1588 44.5009 76.1974 44.2087 76.2718C43.9162 76.3424 43.6354 76.4548 43.3749 76.6053V80.7744C43.3721 81.2747 43.8949 81.5246 44.9433 81.524V81.5273ZM50.6382 72.2511H52.3492V73.7178H50.6382V72.2511ZM50.6841 74.9986H52.2884L52.3034 82.7005H50.6841V74.9986ZM54.5613 82.7005V72.0168H56.1506V82.6972L54.5613 82.7005ZM61.5245 74.7609C62.7163 74.7609 63.5896 75.15 64.1444 75.9283C64.6992 76.7065 64.9715 77.7946 64.9615 79.1927H59.5817C59.6334 79.9542 59.8558 80.5331 60.2488 80.9295C60.6418 81.3258 61.1994 81.5237 61.9214 81.5232C62.7865 81.5241 63.6378 81.3064 64.3962 80.8903V82.4028C63.6018 82.7558 62.6919 82.9323 61.6663 82.9323C60.5156 82.9323 59.6118 82.5799 58.9547 81.875C58.2977 81.1702 57.9694 80.1696 57.97 78.8733C57.97 77.5459 58.2804 76.53 58.9014 75.8257C59.5223 75.1214 60.3967 74.7665 61.5245 74.7609ZM61.4787 76.095C60.9389 76.095 60.5165 76.2393 60.2113 76.5278C59.9061 76.8163 59.7074 77.3049 59.6151 77.9936H63.3272C63.2555 77.3349 63.0721 76.8541 62.7769 76.5511C62.4818 76.2482 62.049 76.0961 61.4787 76.095ZM46.1573 12.5967C44.388 12.1592 43.0261 11.9402 42.0716 11.9396C34.9517 11.9396 29.1792 17.6929 29.1792 24.7879C29.1792 31.8828 34.9542 37.637 42.0716 37.637C49.1891 37.637 54.9649 31.8836 54.9649 24.7879C54.9654 23.7513 54.8405 22.7185 54.593 21.7119L64.8431 18.9512C65.6734 22.1078 65.8305 25.4037 65.304 28.625C64.7775 31.8462 63.5793 34.9206 61.7872 37.6486L44.814 69.116H29.09L40.2631 48.5208C40.324 48.4074 40.1447 48.1572 39.9946 48.1439C28.0552 47.0599 18.7031 37.0541 18.7031 24.8729C18.7031 11.9663 29.2009 1.50441 42.1517 1.50441C44.5224 1.5018 46.8799 1.85798 49.1441 2.56085L46.1573 12.5967Z" fill="#006E53"/>
<path id="Vector_2" d="M41.9938 31.8548C45.8966 31.8548 49.0604 28.691 49.0604 24.7883C49.0604 20.8855 45.8966 17.7217 41.9938 17.7217C38.0911 17.7217 34.9272 20.8855 34.9272 24.7883C34.9272 28.691 38.0911 31.8548 41.9938 31.8548Z" fill="#D6E806"/>
<path id="Vector_3" d="M63.0347 16.598C60.8323 10.9946 56.5015 6.49079 50.9886 4.0708M54.2004 19.9708C52.9762 16.9062 50.6166 14.4322 47.6133 13.0643L54.2004 19.9708ZM58.698 18.043C56.969 13.7927 53.6997 10.3513 49.5436 8.40664L58.698 18.043Z" stroke="#D6E806" stroke-width="1.60609" stroke-linecap="round"/>
</g>
</svg>
