<svg width="85" height="84" viewBox="0 0 85 84" fill="none" xmlns="http://www.w3.org/2000/svg">
<g id="Airtel Nigeria Logo">
<path id="Vector" d="M52.3871 1.10547C55.147 1.14382 57.7802 1.66746 60.2391 2.91818C62.407 4.02799 64.1747 5.57972 65.3813 7.71846C66.1654 9.13034 66.6797 10.6759 66.898 12.2761C67.3466 15.3479 66.893 18.3196 65.8799 21.2254C65.2845 22.9298 64.4607 24.5282 63.5686 26.0982C61.7508 29.2943 59.4153 32.0642 56.6987 34.5198C53.2135 37.6733 49.3916 40.4334 45.3022 42.7504C43.7179 43.6451 42.0753 44.3963 40.3084 44.8558C39.226 45.1481 38.1084 45.2895 36.9874 45.276C35.5115 45.246 34.3567 44.5739 33.4586 43.4416C32.6294 42.4253 32.2021 41.14 32.2579 39.8295C32.2677 39.465 32.3203 39.1028 32.4147 38.7506C32.9492 36.852 33.6754 35.0334 34.7611 33.375C35.5907 32.1084 36.5796 30.9836 37.8729 30.1789C39.3112 29.2834 40.8746 28.9007 42.5656 29.2701C43.0942 29.394 43.5918 29.6253 44.0273 29.9496C45.1404 30.7451 45.082 31.9933 44.5476 32.7904C44.0897 33.4832 43.5778 34.1386 43.0167 34.7507C42.0661 35.7747 41.0564 36.7427 40.0708 37.7333C39.1986 38.6096 38.379 39.5293 37.7144 40.5774C37.3701 41.1211 37.0524 41.6756 36.9573 42.3285C36.8373 43.1473 37.2625 43.7051 38.0888 43.7818C38.5164 43.8167 38.9467 43.7735 39.3587 43.6542C40.6286 43.3032 41.8076 42.737 42.9658 42.1267C44.7518 41.182 46.4003 40.0271 48.0071 38.8089C49.9548 37.3322 51.8484 35.7922 53.5936 34.0795C55.5814 32.1309 57.3533 30.013 58.7091 27.5691C59.6996 25.7847 60.4292 23.9003 60.7536 21.8791C61.0404 20.0989 60.8803 18.3646 60.0557 16.7303C59.6586 15.9225 59.0374 15.2461 58.2663 14.7817C57.9103 14.5674 57.5176 14.4209 57.1082 14.3498C55.6181 14.0855 54.1765 14.3023 52.7598 14.775C51.2831 15.2687 49.9132 15.9891 48.5816 16.7762C45.6916 18.4905 42.7982 20.204 40.0441 22.1343C38.6633 23.1015 37.325 24.1304 35.9718 25.136C34.7494 26.0449 33.5354 26.9646 32.1996 27.7075C31.1156 28.3248 29.9423 28.7701 28.7217 29.0274C27.2092 29.3343 25.8151 29.0491 24.5343 28.227C23.2052 27.374 22.2747 26.2033 21.8661 24.6541C21.606 23.676 21.7085 22.7063 21.9328 21.7407C22.2605 20.3232 22.8825 19.0392 23.658 17.8218C25.5758 14.8151 27.9871 12.2644 30.7913 10.084C34.947 6.85296 39.5197 4.36485 44.4658 2.56465C47.0053 1.63575 49.6834 1.14242 52.3871 1.10547Z" fill="#E20010"/>
<path id="Vector_2" d="M18.1974 69.8484C18.1833 68.9045 18.0757 68.0557 17.5304 67.3194C17.2648 66.9637 16.8972 66.6973 16.4764 66.5557C15.3925 66.1671 14.2885 66.213 13.2121 66.5457C12.3491 66.8125 11.5169 67.176 10.6722 67.5004C10.5055 67.5621 10.3537 67.6413 10.1519 67.7314C9.75422 66.7449 9.36316 65.7877 8.95376 64.7872C9.5466 64.5062 10.1053 64.2193 10.6814 63.9733C12.0089 63.4055 13.3855 63.0161 14.833 62.9286C16.2805 62.841 17.7088 62.9177 19.0262 63.6198C20.5163 64.4086 21.5919 65.5476 22.0422 67.2052C22.1071 67.4222 22.146 67.6461 22.1581 67.8723C22.2156 70.0243 22.2931 72.1764 22.3023 74.3285C22.3081 75.7993 22.2114 77.271 22.1681 78.7427C22.1603 78.9445 22.0763 79.1358 21.9329 79.278C20.9032 80.412 19.6433 81.1958 18.2158 81.7219C16.685 82.2805 15.0549 82.5147 13.4288 82.4098C11.928 82.3265 10.6322 81.7119 9.53659 80.6922C8.44096 79.6724 7.67552 78.4409 7.46206 76.9317C7.17023 74.8646 7.7664 73.0711 9.25226 71.5953C10.2078 70.6464 11.3852 70.1561 12.7118 69.9827C14.1793 69.7917 15.6518 69.8426 17.1243 69.8467L18.1974 69.8484ZM18.0048 73.2087C17.9183 73.1916 17.8309 73.1796 17.743 73.1728C17.2427 73.1628 16.7366 73.1453 16.2338 73.1528C15.6309 73.162 15.0256 73.1645 14.4261 73.2212C13.8066 73.2804 13.2054 73.4613 12.7251 73.8749C11.928 74.562 11.6912 75.4592 11.8855 76.4706C12.1273 77.7213 12.826 78.5951 14.0717 78.967C14.714 79.1591 15.3942 79.1878 16.0504 79.0504C16.6603 78.9388 17.2292 78.6658 17.698 78.2599C17.7773 78.1984 17.8426 78.1205 17.8893 78.0317C17.9361 77.9428 17.9632 77.8449 17.969 77.7446C17.9881 77.3052 18.0448 76.8666 18.0482 76.4272C18.0548 75.4208 18.0398 74.4144 18.0315 73.408C18.0265 73.3411 18.0176 73.2745 18.0048 73.2087Z" fill="#E20010"/>
<path id="Vector_3" d="M68.3488 73.1253C64.7717 73.1253 61.2614 73.0486 57.7018 73.142C57.7202 73.3921 57.731 73.6289 57.7535 73.8599C57.8452 74.8046 58.0487 75.7226 58.4481 76.589C58.7586 77.2956 59.2407 77.9136 59.8506 78.3867C60.8178 79.1213 61.9218 79.2414 63.0799 79.0921C64.0371 78.9687 64.9285 78.6185 65.8173 78.2658C66.2251 78.1049 66.6295 77.9323 67.0681 77.753C67.485 78.6252 67.8935 79.4823 68.3188 80.3645C68.2404 80.4212 68.167 80.4846 68.0853 80.5313C66.351 81.5602 64.4882 82.2231 62.4762 82.3982C60.6418 82.5574 58.8908 82.2564 57.3066 81.2417C56.2276 80.5504 55.4722 79.574 54.8402 78.4817C54.0617 77.1228 53.5904 75.6098 53.4594 74.0492C53.1948 71.2037 53.799 68.5543 55.2721 66.1013C56.2993 64.3961 57.8327 63.4697 59.7522 63.1504C61.5165 62.8401 63.3339 63.1426 64.9026 64.0075C65.7815 64.4837 66.3935 65.2333 66.898 66.0737C67.565 67.1819 67.916 68.4034 68.0845 69.6691C68.2212 70.6897 68.2646 71.7228 68.3463 72.7543C68.3563 72.8602 68.3488 72.9702 68.3488 73.1253ZM64.013 69.8859C63.8053 68.9346 63.6636 67.9623 63.0407 67.156C62.7284 66.7553 62.2896 66.472 61.7958 66.3522C60.4826 66.0045 59.1627 66.6099 58.5982 67.8531C58.3964 68.2959 58.278 68.777 58.1312 69.2431C58.0654 69.454 58.0228 69.6733 57.9703 69.8859C58.323 69.9793 63.6519 69.9835 64.0146 69.8884L64.013 69.8859Z" fill="#E20010"/>
<path id="Vector_4" d="M44.8824 58.5925L49.1507 57.9321V63.1743C50.0979 63.231 51.0001 63.1693 51.9073 63.2669V66.4962C50.9901 66.5113 50.0921 66.4837 49.1557 66.5404C49.1557 66.7222 49.1557 66.8581 49.1557 66.994C49.1479 70.1025 49.1412 73.2112 49.1357 76.3203C49.1357 76.8097 49.1749 77.3 49.2191 77.7878C49.2891 78.5382 49.7052 79.0143 50.4323 79.1969C50.8333 79.2986 51.2452 79.3562 51.6521 79.4337L52.0607 79.5171V82.2579C52.0148 82.2806 51.966 82.2968 51.9156 82.3062C50.7041 82.3604 49.4976 82.3287 48.3261 81.9727C47.1821 81.6275 46.2282 81.0021 45.5811 79.9715C45.2134 79.3879 45.0266 78.7317 44.9458 78.0538C44.8969 77.6292 44.8729 77.2021 44.8741 76.7747C44.8741 70.8713 44.8774 64.9684 44.8841 59.0661L44.8824 58.5925Z" fill="#E20010"/>
<path id="Vector_5" d="M70.6948 58.5963L74.8222 57.8809V58.4504C74.8222 63.8118 74.8244 69.1732 74.8288 74.5347C74.8288 75.5161 74.8372 76.4975 74.8447 77.4797C74.8514 78.4486 75.2049 78.9422 76.1304 79.2307C76.4449 79.3177 76.7643 79.3862 77.0868 79.4358C77.2836 79.4725 77.4829 79.49 77.7222 79.5192V82.3192C77.7 82.3376 77.6737 82.3504 77.6455 82.3567C76.4731 82.4042 75.3058 82.385 74.166 82.0515C73.4753 81.8527 72.8322 81.5157 72.2757 81.0609C71.2393 80.2129 70.8174 79.0764 70.709 77.7949C70.6773 77.4197 70.6814 77.0403 70.6823 76.6634C70.6823 70.7983 70.6864 64.9338 70.6948 59.0699V58.5963Z" fill="#E20010"/>
<path id="Vector_6" d="M36.5843 82.0717H32.4153C32.4103 81.8974 32.4019 81.7381 32.4011 81.5805C32.3966 79.0758 32.393 76.571 32.3902 74.0662C32.3852 72.0651 32.3727 70.0639 32.3736 68.0627C32.3749 67.6999 32.4028 67.3376 32.457 66.9788C32.5187 66.5694 32.7329 66.2283 33.0306 65.9407C34.6682 64.3464 36.6302 63.3909 38.8673 62.979C40.2693 62.7219 41.7062 62.7199 43.1089 62.9731C43.1832 62.9865 43.2574 63.0031 43.3299 63.0215C43.3658 63.0307 43.3999 63.0482 43.4692 63.0749C42.9955 64.2789 42.4185 65.4295 41.8749 66.5669C41.2254 66.5669 40.61 66.5477 39.9963 66.571C38.9365 66.6062 37.8962 66.8654 36.9437 67.3315C36.6736 67.4641 36.5727 67.6292 36.5735 67.9402C36.5852 72.4984 36.588 77.0565 36.5818 81.6147L36.5843 82.0717Z" fill="#E20010"/>
<path id="Vector_7" d="M29.3401 63.3516C29.3843 69.5985 29.336 75.8088 29.376 82.0574H25.2961C25.2861 81.9065 25.2661 81.7489 25.2661 81.5913C25.2661 77.664 25.2661 73.7362 25.2661 69.8078C25.2661 68.0076 25.2811 66.2074 25.2886 64.4072C25.2886 64.2704 25.2886 64.1337 25.2886 63.9619L29.3401 63.3516Z" fill="#E20010"/>
<path id="Vector_8" d="M27.1302 61.5127C25.1382 61.5077 23.8908 59.5249 24.7171 57.653C25.2249 56.5048 26.0971 56.0688 27.3553 56.0763C29.0413 56.0904 30.2912 57.7672 29.8893 59.4057C29.5682 60.7148 28.5176 61.5161 27.1302 61.5127Z" fill="#E20010"/>
</g>
</svg>
