<svg width="73" height="72" viewBox="0 0 73 72" fill="none" xmlns="http://www.w3.org/2000/svg">
<path d="M70.4034 58.5344L63.6741 57.7053V54.8323C63.6741 51.6805 61.291 49.0089 58.1309 48.6179L15.9434 43.399C12.1741 42.9327 8.83032 45.8428 8.83032 49.6134V50.9489L2.62215 50.1841C2.02196 50.1101 1.4184 50.2948 0.965166 50.691C0.511791 51.0872 0.252197 51.6571 0.252197 52.2557V69.2346C0.252197 70.3875 1.19663 71.3221 2.36157 71.3221H70.1428C71.3078 71.3221 72.2522 70.3875 72.2522 69.2346V60.606C72.2522 59.5527 71.4595 58.6645 70.4034 58.5344ZM13.0491 49.6134C13.0491 48.3557 14.1583 47.3861 15.4202 47.5419L57.6077 52.7609C58.6611 52.8913 59.4555 53.7817 59.4555 54.8323V57.1855L13.0491 51.4687V49.6134ZM68.0334 67.147H4.47095V54.6192C26.3092 57.3095 67.8356 62.4259 68.0334 62.4498V67.147ZM22.2652 26.7165L16.4048 25.9895C15.2487 25.846 14.1943 26.6572 14.0495 27.8012C13.9045 28.9452 14.7241 29.9888 15.8801 30.1322L21.7405 30.8592C22.8989 31.0027 23.9513 30.1894 24.0959 29.0475C24.2407 27.9036 23.4212 26.86 22.2652 26.7165ZM36.0789 28.4302L30.6372 27.7551C29.4812 27.6118 28.4267 28.4229 28.2819 29.5669C28.1369 30.7108 28.9564 31.7545 30.1125 31.8978L35.5543 32.573C36.7105 32.7162 37.7648 31.9051 37.9096 30.7612C38.0544 29.6174 37.2349 28.5737 36.0789 28.4302ZM49.8927 30.144L44.4509 29.4689C43.2953 29.3257 42.2404 30.1366 42.0956 31.2806C41.9506 32.4246 42.7703 33.4682 43.9262 33.6116L49.368 34.2867C50.5263 34.4302 51.5788 33.6169 51.7233 32.475C51.8682 31.331 51.0486 30.2875 49.8927 30.144ZM16.9295 21.8467L29.4874 23.4046C30.6444 23.5483 31.6982 22.7349 31.8428 21.5929L32.8922 13.3075C33.0372 12.1635 32.2175 11.1198 31.0616 10.9765L18.5036 9.41861C17.3485 9.27526 16.2931 10.0865 16.1483 11.2303L15.0988 19.5158C14.954 20.6598 15.7737 21.7034 16.9295 21.8467ZM20.0719 13.821L28.444 14.8596L27.9193 19.0024L19.5472 17.9637L20.0719 13.821ZM51.9916 13.5731L43.6197 12.5345C42.4635 12.3912 41.4092 13.2023 41.2644 14.3462C41.1194 15.4902 41.9391 16.5339 43.095 16.6772L51.467 17.7159C51.5561 17.7269 51.6444 17.7323 51.7321 17.7323C52.78 17.7323 53.6887 16.9599 53.8223 15.9041C53.9671 14.7601 53.1476 13.7165 51.9916 13.5731ZM6.45854 37.379L56.6905 43.6108C57.8484 43.7547 58.9014 42.9398 59.0458 41.799L63.2438 8.6572C63.3887 7.51321 62.569 6.46957 61.4131 6.32622L11.1813 0.0945452C10.0254 -0.0488012 8.97081 0.762289 8.82596 1.90628L4.62803 35.048C4.48304 36.1913 5.30288 37.2356 6.45854 37.379ZM12.7495 4.49695L58.7955 10.2094L55.1224 39.2085L9.07628 33.4959L12.7495 4.49695Z" fill="#FF6915"/>
</svg>
