<svg width="73" height="73" viewBox="0 0 73 73" fill="none" xmlns="http://www.w3.org/2000/svg">
<g id="Group">
<path id="Vector" d="M25.6367 25.711H19.5898C18.4249 25.711 17.4805 26.6674 17.4805 27.8471C17.4805 29.0268 18.4249 29.9832 19.5898 29.9832H25.6367C26.8017 29.9832 27.7461 29.0268 27.7461 27.8471C27.7461 26.6674 26.8017 25.711 25.6367 25.711ZM39.5586 25.711H34.0742C32.9093 25.711 31.9648 26.6674 31.9648 27.8471C31.9648 29.0268 32.9093 29.9832 34.0742 29.9832H39.5586C40.7235 29.9832 41.668 29.0268 41.668 27.8471C41.668 26.6674 40.7235 25.711 39.5586 25.711ZM53.4805 25.711H47.9961C46.8312 25.711 45.8867 26.6674 45.8867 27.8471C45.8867 29.0268 46.8312 29.9832 47.9961 29.9832H53.4805C54.6454 29.9832 55.5898 29.0268 55.5898 27.8471C55.5898 26.6674 54.6454 25.711 53.4805 25.711ZM19.5898 21.4389H32.3867C33.5517 21.4389 34.4961 20.4825 34.4961 19.3028V10.7585C34.4961 9.57882 33.5517 8.62243 32.3867 8.62243H19.5898C18.4249 8.62243 17.4805 9.57882 17.4805 10.7585V19.3028C17.4805 20.4825 18.4249 21.4389 19.5898 21.4389ZM21.6992 12.8946H30.2773V17.1667H21.6992V12.8946ZM53.4805 8.62243H45.043C43.878 8.62243 42.9336 9.57882 42.9336 10.7585C42.9336 11.9382 43.878 12.8946 45.043 12.8946H53.4805C54.6454 12.8946 55.5898 11.9382 55.5898 10.7585C55.5898 9.57882 54.6454 8.62243 53.4805 8.62243ZM70.4961 8.62243H64.168V2.2142C64.168 1.03452 63.2235 0.078125 62.0586 0.078125H11.1523C9.98741 0.078125 9.04297 1.03452 9.04297 2.2142V8.62243H2.71484C1.54991 8.62243 0.605469 9.57882 0.605469 10.7585V58.037C0.605469 59.2167 1.54991 60.1731 2.71484 60.1731H32.664L26.4128 69.6686C25.9814 70.3241 25.9412 71.1669 26.3082 71.8614C26.6752 72.5559 27.39 72.9895 28.168 72.9895H45.043C45.8209 72.9895 46.5357 72.5559 46.9027 71.8614C47.2698 71.1669 47.2295 70.324 46.7981 69.6686L40.5469 60.1731H70.4961C71.661 60.1731 72.6055 59.2167 72.6055 58.037V10.7585C72.6055 9.57882 71.661 8.62243 70.4961 8.62243ZM13.2617 4.35028H59.9492V34.2553H13.2617V4.35028ZM41.1015 68.7174H32.1094L36.6055 61.8879L41.1015 68.7174ZM68.3867 55.9009H4.82422V12.8946H9.04297V36.3914C9.04297 37.5711 9.98741 38.5275 11.1523 38.5275H62.0586C63.2235 38.5275 64.168 37.5711 64.168 36.3914V12.8946H68.3867V55.9009ZM49.2617 42.7996H23.9492C22.7843 42.7996 21.8398 43.756 21.8398 44.9357C21.8398 46.1154 22.7843 47.0718 23.9492 47.0718H49.2617C50.4267 47.0718 51.3711 46.1154 51.3711 44.9357C51.3711 43.756 50.4267 42.7996 49.2617 42.7996Z" fill="#FF6915"/>
</g>
</svg>
