
<svg width="25" height="25" viewBox="0 0 25 25" fill="none" xmlns="http://www.w3.org/2000/svg">
<g id="g12">
<path id="path14" d="M24.5317 12.595C24.5317 5.96758 19.1592 0.594997 12.5317 0.594997C5.90432 0.594997 0.531738 5.96758 0.531738 12.595C0.531738 18.5845 4.91997 23.549 10.6567 24.4492V16.0637H7.60986V12.595H10.6567V9.95125C10.6567 6.94375 12.4483 5.2825 15.1893 5.2825C16.5022 5.2825 17.8755 5.51687 17.8755 5.51687V8.47H16.3623C14.8716 8.47 14.4067 9.395 14.4067 10.344V12.595H17.7349L17.2028 16.0637H14.4067V24.4492C20.1435 23.549 24.5317 18.5845 24.5317 12.595Z" fill="#1877F2"/>
<path id="path16" d="M17.2028 16.0635L17.7349 12.5947H14.4067V10.3437C14.4067 9.39473 14.8716 8.46973 16.3623 8.46973H17.8755V5.5166C17.8755 5.5166 16.5022 5.28223 15.1893 5.28223C12.4483 5.28223 10.6567 6.94348 10.6567 9.95098V12.5947H7.60986V16.0635H10.6567V24.4489C11.2677 24.5448 11.8939 24.5947 12.5317 24.5947C13.1696 24.5947 13.7958 24.5448 14.4067 24.4489V16.0635H17.2028Z" fill="white"/>
</g>
</svg>
