<svg width="84" height="84" viewBox="0 0 84 84" fill="none" xmlns="http://www.w3.org/2000/svg">
<g id="Globacom Limited Logo">
<path id="Vector" d="M42.0102 74.9222C60.5127 74.9222 75.512 59.9229 75.512 41.4203C75.512 22.9178 60.5127 7.91846 42.0102 7.91846C23.5076 7.91846 8.5083 22.9178 8.5083 41.4203C8.5083 59.9229 23.5076 74.9222 42.0102 74.9222Z" fill="#50B651"/>
<path id="Vector_2" opacity="0.663" fill-rule="evenodd" clip-rule="evenodd" d="M75.4089 41.3258C75.4089 59.8866 60.3627 74.9328 41.8061 74.9328C23.2496 74.9328 8.19922 59.8866 8.19922 41.3258C8.19922 33.1153 8.42935 31.8945 11.6612 27.2202C11.6612 27.2202 11.4945 32.4999 15.3659 35.6417C17.7731 37.5937 20.2854 36.1845 24.8839 34.0666C29.8584 31.7736 33.9024 30.2945 37.0576 30.6847C41.8103 31.2734 56.4596 40.0709 64.1049 38.3191C70.2126 36.9225 69.568 22.5225 69.568 22.5225C76.2385 29.0362 75.4089 33.4388 75.4089 41.3258Z" fill="url(#paint0_linear_195_1229)"/>
<path id="Vector_3" opacity="0.586" fill-rule="evenodd" clip-rule="evenodd" d="M56.2271 66.0105C68.3813 54.5778 70.4016 41.4802 62.2881 26.7178C62.3292 26.7478 62.8311 25.0157 63.7939 21.5215C68.112 26.7506 70.408 33.2049 70.6821 40.8843C70.6798 50.8312 65.8615 59.2066 56.2271 66.0105Z" fill="url(#paint1_linear_195_1229)"/>
<path id="Vector_4" opacity="0.744" fill-rule="evenodd" clip-rule="evenodd" d="M50.4623 21.5909C44.5956 18.344 37.8651 11.8127 38.7597 10.4411C39.6544 9.0695 51.267 9.30546 57.1345 12.5523C63.0021 15.7992 67.9958 25.539 67.1019 26.9106C66.2081 28.2823 56.3291 24.8378 50.4623 21.5909Z" fill="url(#paint2_radial_195_1229)"/>
<path id="Vector_5" fill-rule="evenodd" clip-rule="evenodd" d="M55.5728 49.6707C50.7059 49.6707 46.7603 45.6126 46.7603 40.6072C46.7603 35.6018 50.7059 31.5444 55.5728 31.5444C60.4398 31.5444 64.3863 35.6018 64.3863 40.6072C64.3863 45.6126 60.4407 49.6707 55.5728 49.6707ZM55.6354 46.7957C58.673 46.7957 61.1386 44.025 61.1386 40.6072C61.1386 37.1894 58.673 34.4211 55.6354 34.4211C52.5978 34.4211 50.1322 37.1919 50.1322 40.6088C50.1322 44.0258 52.5978 46.7957 55.6354 46.7957Z" fill="white"/>
<path id="Vector_6" fill-rule="evenodd" clip-rule="evenodd" d="M37.3896 24.2471H43.74V49.57H40.2538V27.0245H37.3896V24.2471Z" fill="white"/>
<path id="Vector_7" fill-rule="evenodd" clip-rule="evenodd" d="M32.6571 31.802H35.9532V52.9492C35.9532 54.8762 33.9261 56.8832 31.9508 57.747C31.017 58.155 29.2937 58.3974 26.7812 58.4741V56.3704C29.2387 56.0963 30.8975 55.5496 31.7574 54.7303C32.2536 54.0407 32.5638 53.2349 32.6579 52.3906V46.1778C31.7768 48.0472 30.6673 49.2866 29.3293 49.8958C27.9385 50.6462 25.1077 50.5228 23.952 49.8958C22.7964 49.2688 21.1012 47.6178 20.3241 45.1589C20.109 44.4802 19.5737 42.6333 19.6295 40.6763C19.6796 38.8127 20.2966 36.8408 20.8094 36.0303C21.6899 34.6462 23.0782 32.9126 25.1811 32.1881C26.2084 31.834 28.1122 31.7067 30.8927 31.8062V33.8982C28.8265 33.7587 27.5375 33.8285 27.0255 34.1075C26.2575 34.5244 24.524 35.0389 23.952 38.8169C23.3801 42.5949 23.9687 45.6867 25.7823 46.6548C26.4035 46.9883 27.5024 47.3827 28.518 47.035C30.4691 46.3679 32.3052 43.9891 32.4453 42.3773C32.5865 40.7419 32.6571 37.2168 32.6571 31.802Z" fill="white"/>
<path id="Vector_8" fill-rule="evenodd" clip-rule="evenodd" d="M74.356 48.0521C71.2434 63.0399 57.9623 74.3014 42.0523 74.3014C23.831 74.3014 9.05908 59.5295 9.05908 41.3082C9.05908 29.9883 14.7599 20 23.4466 14.0591C16.3883 19.9125 11.8941 28.7551 11.8941 38.6433C11.8941 56.281 26.1923 70.5784 43.8292 70.5784C58.1925 70.5784 70.3395 61.0971 74.356 48.0521Z" fill="url(#paint3_radial_195_1229)"/>
<path id="Vector_9" fill-rule="evenodd" clip-rule="evenodd" d="M42.0524 2.23535C20.4733 2.23535 2.979 19.7288 2.979 41.3079C2.979 62.8871 20.4733 80.3813 42.0524 80.3813C63.6316 80.3813 81.1258 62.8871 81.1258 41.3079C81.1258 19.7288 63.6316 2.23535 42.0524 2.23535ZM42.0524 74.302C23.8311 74.302 9.05919 59.5301 9.05919 41.3088C9.05919 29.9889 14.76 20.0006 23.4467 14.0597C28.9251 10.3076 35.4123 8.30448 42.0524 8.3147C60.2738 8.3147 75.0457 23.0857 75.0457 41.3079C75.0468 43.5736 74.8158 45.8333 74.3561 48.0518C71.2435 63.0397 57.9625 74.3012 42.0524 74.3012V74.302Z" fill="white"/>
</g>
<defs>
<linearGradient id="paint0_linear_195_1229" x1="40.5079" y1="27.1118" x2="44.8154" y2="66.0118" gradientUnits="userSpaceOnUse">
<stop stop-color="#123214"/>
<stop offset="0.46" stop-color="#3E7C37"/>
<stop offset="0.91" stop-color="#5FBB46"/>
</linearGradient>
<linearGradient id="paint1_linear_195_1229" x1="65.3927" y1="24.5827" x2="65.3927" y2="56.0387" gradientUnits="userSpaceOnUse">
<stop stop-color="white" stop-opacity="0"/>
<stop offset="0.64" stop-color="white" stop-opacity="0.43"/>
<stop offset="1" stop-color="white" stop-opacity="0.42"/>
</linearGradient>
<radialGradient id="paint2_radial_195_1229" cx="0" cy="0" r="1" gradientUnits="userSpaceOnUse" gradientTransform="translate(53.6448 18.8963) rotate(26.7606) scale(16.5548 6.8948)">
<stop offset="0.13" stop-color="white"/>
<stop offset="0.29" stop-color="white" stop-opacity="0.69"/>
<stop offset="0.45" stop-color="white" stop-opacity="0.4"/>
<stop offset="0.59" stop-color="white" stop-opacity="0.18"/>
<stop offset="0.69" stop-color="white" stop-opacity="0.05"/>
<stop offset="0.74" stop-color="white" stop-opacity="0"/>
</radialGradient>
<radialGradient id="paint3_radial_195_1229" cx="0" cy="0" r="1" gradientUnits="userSpaceOnUse" gradientTransform="translate(47.7099 33.7064) rotate(39.84) scale(37.0989 40.4378)">
<stop offset="0.86" stop-opacity="0"/>
<stop offset="0.98" stop-opacity="0.47"/>
<stop offset="1"/>
</radialGradient>
</defs>
</svg>
