
<svg width="25" height="25" viewBox="0 0 25 25" fill="none" xmlns="http://www.w3.org/2000/svg">
<path d="M24.8682 12.9908C24.8682 12.0075 24.7865 11.29 24.6098 10.5459H13.1187V14.9839H19.8637C19.7277 16.0868 18.9934 17.7477 17.3615 18.8638L17.3386 19.0124L20.9719 21.7626L21.2236 21.7872C23.5354 19.701 24.8682 16.6315 24.8682 12.9908Z" fill="#4285F4"/>
<path d="M13.1187 24.6844C16.4232 24.6844 19.1973 23.6214 21.2236 21.7877L17.3615 18.8644C16.328 19.5687 14.9409 20.0603 13.1187 20.0603C9.88212 20.0603 7.13515 17.9742 6.15593 15.0908L6.0124 15.1027L2.23446 17.9596L2.18506 18.0938C4.19768 22.0003 8.33178 24.6844 13.1187 24.6844Z" fill="#34A853"/>
<path d="M6.15574 15.0904C5.89736 14.3463 5.74783 13.549 5.74783 12.7252C5.74783 11.9013 5.89736 11.1041 6.14214 10.36L6.1353 10.2015L2.31002 7.29883L2.18486 7.357C1.35536 8.9781 0.879395 10.7985 0.879395 12.7252C0.879395 14.6519 1.35536 16.4722 2.18486 18.0933L6.15574 15.0904Z" fill="#FBBC05"/>
<path d="M13.1186 5.39063C15.4168 5.39063 16.9671 6.36062 17.8511 7.17121L21.3052 3.87588C19.1838 1.9492 16.4231 0.766602 13.1186 0.766602C8.33178 0.766602 4.19768 3.45066 2.18506 7.35717L6.14234 10.3602C7.13515 7.4768 9.88212 5.39063 13.1186 5.39063Z" fill="#EB4335"/>
</svg>
