<svg width="11" height="11" viewBox="0 0 11 11" fill="none" xmlns="http://www.w3.org/2000/svg">
<g id="16px-logo-instagram">
<path id="Oval" d="M7.99304 3.27563C8.32372 3.27563 8.59179 3.00756 8.59179 2.67688C8.59179 2.34619 8.32372 2.07812 7.99304 2.07812C7.66236 2.07812 7.39429 2.34619 7.39429 2.67688C7.39429 3.00756 7.66236 3.27563 7.99304 3.27563Z" fill="white"/>
<path id="Shape" fill-rule="evenodd" clip-rule="evenodd" d="M2.91284 5.23894C2.91284 6.61482 4.03176 7.73373 5.40764 7.73373C6.78352 7.73373 7.90243 6.61482 7.90243 5.23894C7.90243 3.86306 6.78352 2.74414 5.40764 2.74414C4.03176 2.74414 2.91284 3.86306 2.91284 5.23894ZM4.1604 5.23959C4.1604 4.55165 4.71986 3.99219 5.4078 3.99219C6.09574 3.99219 6.6552 4.55165 6.6552 5.23959C6.6552 5.92753 6.09574 6.48698 5.4078 6.48698C4.71986 6.48698 4.1604 5.92753 4.1604 5.23959Z" fill="white"/>
<path id="Shape_2" fill-rule="evenodd" clip-rule="evenodd" d="M2.91301 10.2292H7.9026C9.18493 10.2292 10.3974 9.01672 10.3974 7.73439V2.7448C10.3974 1.46247 9.18493 0.25 7.9026 0.25H2.91301C1.63068 0.25 0.418213 1.46247 0.418213 2.7448V7.73439C0.418213 9.01672 1.63068 10.2292 2.91301 10.2292ZM1.66553 2.74349C1.66553 2.16033 2.32977 1.49609 2.91293 1.49609H7.90252C8.48568 1.49609 9.14992 2.16033 9.14992 2.74349V7.73309C9.14992 8.31624 8.48568 8.98048 7.90252 8.98048H2.91293C2.31854 8.98048 1.66553 8.32747 1.66553 7.73309V2.74349Z" fill="white"/>
</g>
</svg>
