<svg width="92" height="29" viewBox="0 0 92 29" fill="none" xmlns="http://www.w3.org/2000/svg">
<g id="Logo">
<path id="AnyBuy" d="M32.061 18.7136H26.1509L24.9727 21.4629H21.4566L27.6845 8.14661H30.4525L36.6992 21.4629H33.2392L32.061 18.7136ZM30.9201 16.0765L29.1059 11.8684L27.2918 16.0765H30.9201ZM43.2555 11.7001C44.3777 11.7001 45.2131 12.043 45.7617 12.7288C46.3227 13.402 46.6033 14.4245 46.6033 15.796V21.4629H43.2181V15.9456C43.2181 15.3596 43.1184 14.9419 42.9189 14.6925C42.7194 14.4307 42.4077 14.2998 41.9837 14.2998C41.4725 14.2998 41.0611 14.4743 40.7494 14.8235C40.4376 15.1601 40.2818 15.609 40.2818 16.17V21.4629H36.8966V14.6925C36.8966 13.6701 36.8467 12.7599 36.747 11.9619H39.9264L40.0948 13.3646C40.4564 12.8285 40.9052 12.417 41.4414 12.1303C41.9775 11.8435 42.5822 11.7001 43.2555 11.7001ZM58.0123 11.9619L53.6546 21.7995C53.0811 23.0838 52.3579 24.0189 51.4851 24.6049C50.6248 25.2034 49.5587 25.5775 48.287 25.7271L47.5015 23.1461C48.3742 22.9716 49.0288 22.7471 49.4652 22.4728C49.9016 22.1985 50.232 21.8182 50.4565 21.332L50.6996 20.8083L46.8282 11.9619H50.3443L52.4764 17.4418L54.6833 11.9619H58.0123ZM67.2251 14.5616C68.0107 14.786 68.6154 15.185 69.0393 15.7586C69.4632 16.3197 69.6752 17.0054 69.6752 17.8159C69.6752 18.5515 69.4819 19.1936 69.0954 19.7422C68.7089 20.2909 68.154 20.7148 67.4309 21.014C66.7202 21.3133 65.8786 21.4629 64.906 21.4629H58.2666V8.14661H64.7377C66.1342 8.14661 67.2439 8.45832 68.0668 9.08174C68.8897 9.70516 69.3011 10.5468 69.3011 11.6066C69.3011 12.2924 69.1203 12.8971 68.7588 13.4208C68.3972 13.9444 67.886 14.3247 67.2251 14.5616ZM61.6892 13.3646H64.1392C64.7876 13.3646 65.2614 13.2649 65.5606 13.0654C65.8599 12.8659 66.0095 12.548 66.0095 12.1116C66.0095 11.6627 65.8536 11.3323 65.5419 11.1203C65.2427 10.9084 64.7751 10.8024 64.1392 10.8024H61.6892V13.3646ZM64.4946 18.8071C65.1679 18.8071 65.6479 18.7011 65.9347 18.4892C66.2339 18.2772 66.3835 17.9219 66.3835 17.4231C66.3835 16.9119 66.2401 16.5503 65.9534 16.3384C65.6666 16.1264 65.1803 16.0204 64.4946 16.0204H61.6892V18.8071H64.4946ZM80.2076 11.9619V21.4629H76.8972V20.1911C76.2862 21.1387 75.3823 21.6125 74.1853 21.6125C72.9759 21.6125 72.0719 21.2759 71.4734 20.6026C70.8874 19.9293 70.5944 18.9006 70.5944 17.5166V11.9619H73.9796V17.6101C73.9796 18.5453 74.3848 19.0128 75.1953 19.0128C75.6691 19.0128 76.0493 18.8445 76.3361 18.5079C76.6354 18.1712 76.785 17.7224 76.785 17.1613V11.9619H80.2076ZM91.4879 11.9619L87.1302 21.7995C86.5566 23.0838 85.8335 24.0189 84.9607 24.6049C84.1003 25.2034 83.0343 25.5775 81.7625 25.7271L80.977 23.1461C81.8498 22.9716 82.5044 22.7471 82.9408 22.4728C83.3772 22.1985 83.7076 21.8182 83.932 21.332L84.1752 20.8083L80.3037 11.9619H83.8198L85.9519 17.4418L88.1588 11.9619H91.4879Z" fill="black"/>
<path id="Logo Symbols" d="M1.11852 13.1911L7.65735 1.3524C7.82857 1.04239 8.07686 0.781783 8.37823 0.595755C9.60687 -0.162674 11.2143 0.546008 11.4831 1.96464L15.5876 23.6274C15.8826 25.1843 15.154 26.7564 13.7753 27.5377C12.5554 28.2289 11.0497 28.1718 9.8858 27.3901L1.35316 21.6594C0.211917 20.8929 0.476857 19.1442 1.79393 18.7501L3.4153 18.2651C4.09232 18.0625 4.82401 18.1653 5.41907 18.5464L8.92093 20.7896L7.91853 10.1928L4.90745 15.3443C4.63355 15.8129 4.19462 16.1625 3.67659 16.3245C1.80115 16.9111 0.168464 14.9112 1.11852 13.1911Z" fill="#FF6915"/>
</g>
</svg>
