<svg width="114" height="35" viewBox="0 0 114 35" fill="none" xmlns="http://www.w3.org/2000/svg">
<path d="M39.6897 22.742H32.3586L30.897 26.1523H26.5355L34.261 9.63423H37.6945L45.4432 26.1523H41.1512L39.6897 22.742ZM38.2745 19.4709L36.0241 14.251L33.7738 19.4709H38.2745ZM53.5759 14.0422C54.9679 14.0422 56.0041 14.4675 56.6846 15.3181C57.3806 16.1533 57.7286 17.4216 57.7286 19.1229V26.1523H53.5295V19.3085C53.5295 18.5815 53.4058 18.0634 53.1583 17.7541C52.9108 17.4293 52.5242 17.2669 51.9983 17.2669C51.3642 17.2669 50.8538 17.4834 50.4672 17.9165C50.0805 18.3341 49.8872 18.8909 49.8872 19.5869V26.1523H45.688V17.7541C45.688 16.4858 45.6262 15.3568 45.5024 14.3669H49.4464L49.6552 16.1069C50.1037 15.4419 50.6605 14.9315 51.3255 14.5757C51.9906 14.22 52.7407 14.0422 53.5759 14.0422ZM71.8809 14.3669L66.4754 26.5699C65.764 28.163 64.8669 29.323 63.7843 30.0499C62.7171 30.7923 61.3947 31.2563 59.8171 31.4419L58.8428 28.2403C59.9254 28.0238 60.7374 27.7454 61.2787 27.4051C61.82 27.0649 62.2299 26.5931 62.5083 25.9899L62.8099 25.3404L58.0076 14.3669H62.3691L65.0138 21.1644L67.7514 14.3669H71.8809ZM83.3089 17.5917C84.2833 17.8701 85.0334 18.365 85.5593 19.0765C86.0851 19.7725 86.348 20.6231 86.348 21.6284C86.348 22.5409 86.1083 23.3375 85.6289 24.018C85.1494 24.6985 84.4611 25.2244 83.5641 25.5956C82.6825 25.9667 81.6385 26.1523 80.4322 26.1523H72.1963V9.63423H80.2234C81.9556 9.63423 83.3321 10.0209 84.3529 10.7942C85.3737 11.5675 85.8841 12.6115 85.8841 13.9262C85.8841 14.7768 85.6598 15.5269 85.2113 16.1765C84.7627 16.8261 84.1286 17.2978 83.3089 17.5917ZM76.4418 16.1069H79.481C80.2852 16.1069 80.8729 15.9832 81.2441 15.7357C81.6153 15.4883 81.8009 15.0939 81.8009 14.5525C81.8009 13.9958 81.6076 13.5859 81.2209 13.323C80.8497 13.06 80.2698 12.9286 79.481 12.9286H76.4418V16.1069ZM79.9218 22.858C80.7569 22.858 81.3524 22.7265 81.7081 22.4636C82.0793 22.2007 82.2649 21.7599 82.2649 21.1412C82.2649 20.5071 82.0871 20.0586 81.7313 19.7957C81.3756 19.5327 80.7724 19.4013 79.9218 19.4013H76.4418V22.858H79.9218ZM99.4129 14.3669V26.1523H95.3065V24.5748C94.5487 25.7502 93.4274 26.3379 91.9426 26.3379C90.4424 26.3379 89.321 25.9203 88.5787 25.0852C87.8517 24.25 87.4883 22.974 87.4883 21.2572V14.3669H91.6874V21.3732C91.6874 22.5332 92.1901 23.1132 93.1954 23.1132C93.7831 23.1132 94.2548 22.9044 94.6105 22.4868C94.9817 22.0692 95.1673 21.5124 95.1673 20.8164V14.3669H99.4129ZM113.405 14.3669L108 26.5699C107.289 28.163 106.391 29.323 105.309 30.0499C104.242 30.7923 102.919 31.2563 101.342 31.4419L100.367 28.2403C101.45 28.0238 102.262 27.7454 102.803 27.4051C103.345 27.0649 103.754 26.5931 104.033 25.9899L104.334 25.3404L99.5321 14.3669H103.894L106.538 21.1644L109.276 14.3669H113.405Z" fill="white"/>
<path d="M1.30733 16.4578L9.41838 1.77261C9.63078 1.38806 9.93877 1.06479 10.3126 0.83403C11.8367 -0.106759 13.8305 0.772321 14.164 2.53206L19.2554 29.4035C19.6213 31.3348 18.7175 33.2849 17.0073 34.254C15.4942 35.1115 13.6265 35.0406 12.1827 34.0709L1.59839 26.9623C0.182736 26.0115 0.51138 23.8423 2.14513 23.3535L4.15635 22.7518C4.99616 22.5006 5.90379 22.628 6.64193 23.1009L10.9858 25.8833L9.74237 12.7386L6.00728 19.1288C5.66752 19.7101 5.12307 20.1437 4.48047 20.3446C2.1541 21.0723 0.128835 18.5915 1.30733 16.4578Z" fill="white"/>
</svg>
