<svg width="58" height="37" viewBox="0 0 58 37" fill="none" xmlns="http://www.w3.org/2000/svg">
<g id="assets-/-logo-/-mastercard-/-symbol">
<path id="Fill-1" fill-rule="evenodd" clip-rule="evenodd" d="M20.9561 32.2798H36.4793V4.01758H20.9561V32.2798Z" fill="#FF5F00"/>
<path id="Fill-2" fill-rule="evenodd" clip-rule="evenodd" d="M21.9419 18.1479C21.9419 12.4142 24.5917 7.30754 28.7179 4.01678C25.7 1.60976 21.8926 0.173828 17.7541 0.173828C7.95665 0.173828 0.0146484 8.22122 0.0146484 18.1479C0.0146484 28.0746 7.95665 36.122 17.7541 36.122C21.8926 36.122 25.7 34.686 28.7179 32.279C24.5917 28.9878 21.9419 23.8816 21.9419 18.1479Z" fill="#EB001B"/>
<path id="Fill-4" fill-rule="evenodd" clip-rule="evenodd" d="M56.8671 29.2858V28.5883H56.6873L56.4808 29.0681L56.2738 28.5883H56.0939V29.2858H56.2206V28.7596L56.4147 29.2134H56.5463L56.7405 28.7586V29.2858H56.8671ZM55.7283 29.2858V28.7072H55.9589V28.5893H55.3725V28.7072H55.6026V29.2858H55.7283ZM57.4211 18.1479C57.4211 28.0746 49.4786 36.122 39.6816 36.122C35.5431 36.122 31.7352 34.686 28.7178 32.279C32.844 28.9883 35.4938 23.8816 35.4938 18.1479C35.4938 12.4147 32.844 7.30803 28.7178 4.01678C31.7352 1.60976 35.5431 0.173828 39.6816 0.173828C49.4786 0.173828 57.4211 8.22122 57.4211 18.1479Z" fill="#F79E1B"/>
</g>
</svg>
