<svg width="85" height="85" viewBox="0 0 85 85" fill="none" xmlns="http://www.w3.org/2000/svg">
<g id="MTN Logo">
<path id="Vector" d="M83.3189 1.48486H1.60498V83.1963H83.3189V1.48486Z" fill="#FFC325"/>
<path id="Vector_2" d="M2.84717 42.3413C2.84717 33.8072 20.5833 26.8882 42.4617 26.8882C64.3402 26.8882 82.0763 33.8088 82.0763 42.3421C82.0763 50.8754 64.341 57.7927 42.4617 57.7927C20.5824 57.7927 2.84717 50.8745 2.84717 42.3413Z" fill="#006891"/>
<path id="Vector_3" d="M2.84717 42.3413C2.84717 33.8072 20.5833 26.8882 42.4617 26.8882C64.3402 26.8882 82.0763 33.8088 82.0763 42.3421C82.0763 50.8754 64.341 57.7927 42.4617 57.7927C20.5824 57.7927 2.84717 50.8745 2.84717 42.3413Z" stroke="#006891" stroke-width="0.117158" stroke-miterlimit="3.8636"/>
<path id="Vector_4" fill-rule="evenodd" clip-rule="evenodd" d="M17.3657 49.8519L21.4773 34.5039H27.9669V43.5308H28.0094L32.4119 34.5039H39.0041L34.8925 49.8519H30.6075L33.2432 40.0071H33.2007L27.9669 49.8519H24.5357V40.0071H24.4657L21.83 49.8519H17.3657Z" fill="white"/>
<path id="Vector_5" fill-rule="evenodd" clip-rule="evenodd" d="M40.1641 50.1559L40.7477 47.9746H45.4771L44.8926 50.1559H40.1641Z" fill="#EE4034"/>
<path id="Vector_6" fill-rule="evenodd" clip-rule="evenodd" d="M40.9108 47.3613L43.3031 38.4378H39.0039L40.0587 34.5039H53.3856L52.3316 38.4378H48.0325L45.6411 47.3588L40.9108 47.3613Z" fill="#FFC325"/>
<path id="Vector_7" fill-rule="evenodd" clip-rule="evenodd" d="M50.3296 49.8519L54.4386 34.5039H59.083L61.1784 42.7162H61.2192L63.4188 34.5039H67.7121L63.6023 49.8519H59.1839L56.9084 41.4696H56.8675L54.6229 49.8519H50.3296Z" fill="white"/>
</g>
</svg>
