<svg width="95" height="26" viewBox="0 0 95 26" fill="none" xmlns="http://www.w3.org/2000/svg">
<g id="PayPal Logo" clip-path="url(#clip0_194_3659)">
<path id="Vector" d="M35.6044 5.95215H30.4233C30.2518 5.95204 30.0859 6.01319 29.9555 6.12459C29.825 6.23598 29.7387 6.3903 29.712 6.55972L27.6165 19.8453C27.6069 19.907 27.6107 19.97 27.6278 20.03C27.6448 20.09 27.6747 20.1456 27.7153 20.193C27.7559 20.2404 27.8063 20.2784 27.863 20.3044C27.9197 20.3305 27.9814 20.3439 28.0438 20.3438H30.5173C30.6889 20.3439 30.8549 20.2826 30.9853 20.1711C31.1158 20.0595 31.2021 19.905 31.2286 19.7355L31.7938 16.1521C31.8203 15.9827 31.9065 15.8283 32.0368 15.7168C32.1671 15.6053 32.3329 15.5439 32.5044 15.5438H34.1445C37.5574 15.5438 39.5271 13.8923 40.0415 10.6196C40.2733 9.18775 40.0514 8.06275 39.3809 7.27488C38.6445 6.40972 37.3385 5.95215 35.6044 5.95215ZM36.2021 10.8044C35.9188 12.6635 34.4983 12.6635 33.1248 12.6635H32.343L32.8915 9.19154C32.9076 9.08996 32.9593 8.99745 33.0375 8.93065C33.1157 8.86385 33.2152 8.82715 33.318 8.82715H33.6764C34.612 8.82715 35.4945 8.82715 35.9506 9.36048C36.2226 9.67866 36.3059 10.1514 36.2021 10.8044ZM51.0915 10.7446H48.6104C48.5076 10.7446 48.4081 10.7813 48.33 10.8481C48.2518 10.9149 48.2 11.0074 48.1839 11.109L48.0741 11.8029L47.9006 11.5514C47.3635 10.7718 46.1657 10.5112 44.9703 10.5112C42.2286 10.5112 39.887 12.5878 39.4309 15.5006C39.1938 16.9537 39.5309 18.3431 40.3551 19.312C41.1112 20.2029 42.193 20.5741 43.4801 20.5741C45.6892 20.5741 46.9142 19.1537 46.9142 19.1537L46.8036 19.8431C46.7938 19.9047 46.7974 19.9677 46.8142 20.0278C46.8311 20.0879 46.8608 20.1437 46.9013 20.1912C46.9417 20.2387 46.992 20.2769 47.0487 20.3031C47.1053 20.3293 47.167 20.343 47.2294 20.3431H49.4642C49.6359 20.3431 49.8019 20.2819 49.9323 20.1703C50.0628 20.0588 50.149 19.9043 50.1756 19.7347L51.5165 11.2431C51.5264 11.1816 51.5228 11.1186 51.506 11.0587C51.4891 10.9987 51.4595 10.9431 51.4191 10.8957C51.3787 10.8483 51.3285 10.8102 51.2719 10.7841C51.2153 10.7581 51.1538 10.7446 51.0915 10.7446ZM47.6332 15.5734C47.3938 16.9908 46.2688 17.9423 44.8339 17.9423C44.1135 17.9423 43.5377 17.7112 43.168 17.2734C42.8014 16.8385 42.662 16.2196 42.7786 15.5302C43.0021 14.1249 44.146 13.1423 45.5589 13.1423C46.2635 13.1423 46.8362 13.3764 47.2135 13.8181C47.5915 14.2643 47.7415 14.887 47.6332 15.5734ZM64.3051 10.7446H61.812C61.6944 10.7448 61.5786 10.7736 61.4747 10.8287C61.3708 10.8837 61.2819 10.9633 61.2157 11.0605L57.7771 16.1256L56.3195 11.2582C56.2748 11.1098 56.1834 10.9796 56.059 10.8871C55.9346 10.7946 55.7837 10.7446 55.6286 10.7446H53.1786C53.1098 10.7444 53.042 10.7606 52.9808 10.792C52.9196 10.8233 52.8667 10.8688 52.8266 10.9247C52.7865 10.9805 52.7604 11.0452 52.7503 11.1132C52.7402 11.1812 52.7466 11.2507 52.7688 11.3158L55.515 19.3749L52.9332 23.0196C52.8873 23.0842 52.8601 23.1602 52.8545 23.2393C52.8489 23.3183 52.8652 23.3974 52.9016 23.4678C52.938 23.5382 52.993 23.5972 53.0608 23.6384C53.1285 23.6796 53.2062 23.7014 53.2854 23.7014H55.7756C55.8919 23.7015 56.0064 23.6735 56.1095 23.6197C56.2125 23.5658 56.301 23.4878 56.3673 23.3923L64.6597 11.4226C64.7046 11.3578 64.731 11.282 64.7359 11.2033C64.7408 11.1247 64.7241 11.0461 64.6876 10.9763C64.6511 10.9064 64.5961 10.8479 64.5287 10.8071C64.4613 10.7662 64.384 10.7446 64.3051 10.7446Z" fill="#253B80"/>
<path id="Vector_2" d="M72.5596 5.95193H67.3778C67.2064 5.952 67.0406 6.01324 66.9104 6.12462C66.7801 6.23599 66.6939 6.39021 66.6672 6.55951L64.5717 19.8451C64.562 19.9067 64.5657 19.9696 64.5826 20.0295C64.5995 20.0895 64.6292 20.1451 64.6697 20.1925C64.7102 20.2399 64.7604 20.2779 64.817 20.304C64.8736 20.3301 64.9352 20.3436 64.9975 20.3436H67.6566C67.7765 20.3434 67.8925 20.3004 67.9836 20.2224C68.0747 20.1443 68.135 20.0364 68.1535 19.9178L68.7482 16.1519C68.7748 15.9825 68.8609 15.8281 68.9912 15.7166C69.1215 15.605 69.2873 15.5437 69.4588 15.5436H71.0982C74.5119 15.5436 76.4808 13.8921 76.996 10.6194C77.2285 9.18754 77.005 8.06254 76.3346 7.27466C75.599 6.40951 74.2937 5.95193 72.5596 5.95193ZM73.1573 10.8042C72.8747 12.6633 71.4543 12.6633 70.08 12.6633H69.299L69.8482 9.19132C69.864 9.08974 69.9156 8.99716 69.9937 8.93032C70.0718 8.86348 70.1712 8.8268 70.274 8.82693H70.6323C71.5672 8.82693 72.4505 8.82693 72.9066 9.36026C73.1785 9.67844 73.2611 10.1512 73.1573 10.8042ZM88.046 10.7444H85.5664C85.4636 10.7441 85.3641 10.7807 85.2859 10.8476C85.2078 10.9144 85.1563 11.0071 85.1407 11.1087L85.0308 11.8027L84.8566 11.5512C84.3194 10.7716 83.1225 10.511 81.927 10.511C79.1854 10.511 76.8444 12.5875 76.3884 15.5004C76.152 16.9534 76.4876 18.3428 77.3119 19.3118C78.0694 20.2027 79.1497 20.5739 80.4369 20.5739C82.646 20.5739 83.871 19.1534 83.871 19.1534L83.7604 19.8428C83.7505 19.9046 83.7541 19.9678 83.7711 20.028C83.788 20.0882 83.8178 20.144 83.8585 20.1916C83.8991 20.2391 83.9496 20.2773 84.0064 20.3034C84.0633 20.3295 84.1251 20.343 84.1876 20.3428H86.4217C86.5932 20.3427 86.759 20.2814 86.8893 20.1699C87.0196 20.0583 87.1058 19.9039 87.1323 19.7345L88.474 11.2428C88.4835 11.1811 88.4795 11.1181 88.4624 11.0581C88.4453 10.9981 88.4153 10.9425 88.3747 10.8951C88.334 10.8478 88.2836 10.8098 88.2268 10.7837C88.1701 10.7577 88.1084 10.7443 88.046 10.7444ZM84.5876 15.5731C84.3497 16.9906 83.2232 17.9421 81.7884 17.9421C81.0694 17.9421 80.4922 17.711 80.1225 17.2731C79.7558 16.8383 79.6179 16.2194 79.7331 15.53C79.9581 14.1247 81.1005 13.1421 82.5134 13.1421C83.2179 13.1421 83.7907 13.3762 84.1679 13.8178C84.5475 14.264 84.6975 14.8868 84.5876 15.5731ZM90.971 6.31632L88.8444 19.8451C88.8347 19.9067 88.8384 19.9696 88.8553 20.0295C88.8722 20.0895 88.902 20.1451 88.9424 20.1925C88.9829 20.2399 89.0331 20.2779 89.0897 20.304C89.1463 20.3301 89.2079 20.3436 89.2702 20.3436H91.4081C91.7634 20.3436 92.0649 20.086 92.1194 19.7353L94.2164 6.45041C94.2262 6.38883 94.2224 6.32588 94.2055 6.26587C94.1886 6.20586 94.1589 6.15022 94.1185 6.10279C94.078 6.05535 94.0278 6.01724 93.9712 5.99106C93.9146 5.96489 93.853 5.95128 93.7907 5.95117H91.3967C91.2939 5.95154 91.1947 5.98848 91.1166 6.05539C91.0386 6.1223 90.987 6.2148 90.971 6.31632Z" fill="#179BD7"/>
<path id="Vector_3" d="M6.10017 22.9249L6.49638 20.4082L5.61381 20.3877H1.39941L4.3282 1.81729C4.33692 1.76055 4.36574 1.70883 4.40941 1.67156C4.45307 1.63429 4.50867 1.61396 4.56608 1.61426H11.6721C14.0312 1.61426 15.6593 2.10517 16.5093 3.07411C16.9077 3.52866 17.1615 4.00365 17.2843 4.52638C17.413 5.07487 17.4153 5.73017 17.2896 6.52941L17.2805 6.58775V7.09987L17.679 7.32562C17.9832 7.47975 18.2566 7.68823 18.4858 7.94078C18.8267 8.32941 19.0471 8.82335 19.1403 9.40896C19.2365 10.0112 19.2047 10.7279 19.0471 11.5393C18.8653 12.4726 18.5714 13.2855 18.1744 13.9506C17.8242 14.5465 17.3532 15.0626 16.7918 15.4658C16.2646 15.84 15.6381 16.1241 14.9297 16.3059C14.2434 16.4847 13.4608 16.5749 12.6024 16.5749H12.0494C11.654 16.5749 11.2699 16.7173 10.9684 16.9726C10.6673 17.2306 10.4675 17.5871 10.4047 17.9787L10.3631 18.2052L9.66305 22.6408L9.63123 22.8037C9.6229 22.8552 9.60851 22.8809 9.58729 22.8984C9.56675 22.9152 9.54111 22.9245 9.51457 22.9249H6.10017Z" fill="#253B80"/>
<path id="Vector_4" d="M18.0566 6.64746C18.0354 6.78307 18.0112 6.9217 17.9839 7.06413C17.0468 11.8755 13.8407 13.5376 9.74603 13.5376H7.66119C7.16043 13.5376 6.73846 13.9012 6.66043 14.3952L5.593 21.1649L5.29073 23.0838C5.27869 23.1599 5.28329 23.2378 5.30421 23.3119C5.32512 23.3861 5.36187 23.4549 5.41191 23.5135C5.46195 23.5721 5.52409 23.6191 5.59407 23.6514C5.66404 23.6837 5.74018 23.7004 5.81725 23.7005H9.51497C9.95285 23.7005 10.3248 23.3823 10.3938 22.9505L10.4301 22.7626L11.1263 18.3444L11.171 18.102C11.2392 17.6687 11.6119 17.3505 12.0498 17.3505H12.6029C16.1854 17.3505 18.99 15.8959 19.8097 11.6869C20.1521 9.92852 19.9748 8.46034 19.0688 7.42776C18.7816 7.10834 18.4386 6.84392 18.0566 6.64746Z" fill="#179BD7"/>
<path id="Vector_5" d="M17.0761 6.25656C16.7768 6.17 16.4724 6.10244 16.1647 6.05428C15.5566 5.96083 14.942 5.91599 14.3268 5.92019H8.75713C8.54516 5.92003 8.34013 5.9957 8.1791 6.13353C8.01806 6.27136 7.91165 6.46226 7.8791 6.67171L6.69425 14.1763L6.66016 14.3952C6.69707 14.1563 6.81827 13.9385 7.00182 13.7812C7.18538 13.6239 7.41918 13.5375 7.66091 13.5376H9.74576C13.8405 13.5376 17.0465 11.8747 17.9836 7.06413C18.0117 6.92171 18.0352 6.78307 18.0564 6.64746C17.8091 6.51779 17.5514 6.40908 17.2859 6.32246C17.2163 6.29937 17.1464 6.2774 17.0761 6.25656Z" fill="#222D65"/>
<path id="Vector_6" d="M7.87897 6.67144C7.91124 6.46193 8.0176 6.27095 8.17872 6.13319C8.33983 5.99543 8.54502 5.92003 8.757 5.92069H14.3267C14.9865 5.92069 15.6025 5.96387 16.1646 6.05478C16.545 6.11456 16.9201 6.20397 17.2865 6.3222C17.5631 6.41387 17.8199 6.5222 18.057 6.6472C18.3358 4.86917 18.0547 3.65856 17.0934 2.56235C16.0335 1.35553 14.1206 0.838867 11.6729 0.838867H4.56685C4.06685 0.838867 3.64033 1.2025 3.56306 1.6972L0.60321 20.4586C0.589424 20.5457 0.594669 20.6347 0.618586 20.7196C0.642502 20.8045 0.684521 20.8832 0.741754 20.9503C0.798986 21.0174 0.870074 21.0713 0.950125 21.1083C1.03018 21.1453 1.11729 21.1645 1.20548 21.1646H5.5926L6.69412 14.176L7.87897 6.67144Z" fill="#253B80"/>
</g>
<defs>
<clipPath id="clip0_194_3659">
<rect width="93.9394" height="25" fill="white" transform="translate(0.595703 0.838867)"/>
</clipPath>
</defs>
</svg>
