<svg width="229" height="301" viewBox="0 0 229 301" fill="none" xmlns="http://www.w3.org/2000/svg">
<g id="Robot">
<path id="Vector" d="M71.3853 14.6562L72.0229 14.0232C73.8102 12.249 76.2291 11.2574 78.7475 11.2667C81.2659 11.2759 83.6775 12.2852 85.4517 14.0725L87.2596 15.8937C89.0339 17.681 90.0255 20.0999 90.0162 22.6183C90.007 25.1367 88.9977 27.5482 87.2104 29.3225L86.5727 29.9555L71.3853 14.6562Z" fill="#455A64"/>
<path id="Vector_2" d="M86.5714 29.9647L71.3716 14.6491L72.0046 14.0161C72.8856 13.1371 73.9312 12.4406 75.0817 11.9664C76.2323 11.4922 77.465 11.2496 78.7094 11.2525H78.7435C79.993 11.2535 81.2299 11.5018 82.383 11.9832C83.5361 12.4645 84.5825 13.1693 85.4619 14.0569L87.2725 15.8812C89.0474 17.6738 90.039 20.0971 90.0301 22.6197C90.0211 25.1423 89.0124 27.5584 87.2249 29.3385L86.5714 29.9647ZM71.4056 14.6423L86.5714 29.917L87.1977 29.2976C88.9802 27.526 89.9864 25.1192 89.9953 22.6061C90.0043 20.0929 89.0152 17.679 87.2453 15.8948L85.4347 14.0705C84.5602 13.1843 83.5184 12.4807 82.3697 12.0004C81.2211 11.5202 79.9885 11.2729 78.7435 11.2729H78.7094C77.4721 11.2656 76.2454 11.5023 75.0996 11.9695C73.9538 12.4367 72.9113 13.1252 72.0319 13.9957L71.4056 14.6423Z" fill="#263238"/>
<path id="Vector_3" d="M40.7085 74.9043L40.0482 75.5136C38.1974 77.2215 35.7439 78.1242 33.2275 78.0231C30.7111 77.9221 28.338 76.8255 26.6301 74.9747L24.8898 73.0888C23.1758 71.2313 22.2699 68.7691 22.3713 66.2437C22.4727 63.7183 23.5732 61.3366 25.4307 59.6226L26.066 59.0363L40.7085 74.9043Z" fill="#455A64"/>
<path id="Vector_4" d="M33.6203 78.0557H33.2255C31.9771 78.0086 30.7503 77.7149 29.616 77.1915C28.4816 76.6681 27.462 75.9254 26.616 75.0062L24.8802 73.1207C23.1728 71.2648 22.2706 68.8077 22.3714 66.2878C22.4722 63.7679 23.5677 61.3907 25.4179 59.677L26.0986 59.0576L40.7267 74.9109L40.046 75.5236C38.3012 77.1495 36.0053 78.0542 33.6203 78.0557ZM25.452 59.677C24.5293 60.5213 23.7828 61.5397 23.2553 62.6736C22.7279 63.8075 22.4299 65.0346 22.3787 66.2841C22.3274 67.5337 22.5239 68.781 22.9567 69.9544C23.3895 71.1277 24.0502 72.2038 24.9006 73.1207L26.6432 75.0062C27.486 75.9236 28.5022 76.6648 29.6332 77.1871C30.7642 77.7093 31.9874 78.0022 33.2323 78.0489H33.6203C36.0005 78.0533 38.2941 77.1558 40.0392 75.5372L40.7199 74.9382L26.1259 59.1189L25.452 59.677Z" fill="#263238"/>
<path id="Vector_5" d="M17.1084 40.0451L16.04 41.3696L27.002 50.2116L28.0704 48.8871L17.1084 40.0451Z" fill="#455A64"/>
<path id="Vector_6" d="M17.8215 37.2482C18.3562 37.679 18.7511 38.2587 18.9563 38.914C19.1615 39.5693 19.1678 40.2707 18.9743 40.9295C18.7808 41.5884 18.3963 42.175 17.8694 42.6153C17.3425 43.0556 16.6968 43.3298 16.0141 43.4031C15.3314 43.4764 14.6422 43.3456 14.0338 43.0272C13.4254 42.7089 12.9251 42.2172 12.5962 41.6145C12.2672 41.0118 12.1244 40.325 12.1858 39.6411C12.2471 38.9572 12.51 38.3069 12.941 37.7723C13.5209 37.0589 14.3592 36.6035 15.2733 36.5053C16.1875 36.4071 17.1034 36.6741 17.8215 37.2482Z" fill="#263238"/>
<path id="Vector_7" d="M59.3191 16.9499L27.3543 48.6924C22.9528 53.0632 22.928 60.1745 27.2988 64.5759L47.3669 84.7846C51.7377 89.186 58.849 89.2109 63.2504 84.8401L95.2153 53.0976C99.6167 48.7268 99.6416 41.6155 95.2708 37.214L75.2027 17.0053C70.8319 12.6039 63.7206 12.5791 59.3191 16.9499Z" fill="#FF6915"/>
<path id="Vector_8" d="M60.2148 16.0648L58.7104 10.3266L54.7964 10.9733L53.6665 6.82785L54.9462 6.53516L55.8379 9.55062L59.7451 9.01968L61.3787 14.9077L60.2148 16.0648Z" fill="#455A64"/>
<path id="Vector_9" d="M62.5128 24.4959L34.8804 51.9361C31.1565 55.634 31.1355 61.6506 34.8335 65.3745L36.1045 66.6545C39.8025 70.3783 45.8191 70.3993 49.5429 66.7014L77.1753 39.2612C80.8992 35.5633 80.9202 29.5467 77.2222 25.8228L75.9512 24.5428C72.2532 20.819 66.2366 20.798 62.5128 24.4959Z" fill="#263238"/>
<path id="Vector_10" d="M78.7027 41.8086C78.7027 41.8086 78.7844 41.6997 78.9546 41.5023C79.2215 41.2152 79.4715 40.913 79.7033 40.5969C80.6237 39.4087 81.3013 38.051 81.6978 36.6013C81.9834 35.5582 82.1366 34.4833 82.1538 33.402C82.1432 32.1167 81.9367 30.8404 81.5412 29.6174C81.082 28.213 80.3614 26.9081 79.4175 25.7715L78.6142 24.8866L77.743 24.0153C77.1578 23.4001 76.53 22.8268 75.8642 22.2999C74.4201 21.1784 72.7394 20.4008 70.9496 20.0264C69.0085 19.6656 67.0088 19.7824 65.1229 20.3668C64.1353 20.6786 63.1925 21.118 62.3185 21.6737C61.4247 22.2619 60.5983 22.9467 59.8544 23.7158L55.0555 28.4806L33.6613 49.7386C31.7946 51.5913 30.5973 54.0124 30.2579 56.6204C30.1009 57.8874 30.1422 59.1712 30.3804 60.4255C30.7612 62.265 31.5627 63.9913 32.722 65.4694C33.1236 65.9391 33.5184 66.3952 33.9676 66.8308C34.7872 67.7297 35.6847 68.5543 36.6496 69.2949C38.5135 70.6422 40.7303 71.4159 43.0278 71.5211C45.3252 71.6263 47.6035 71.0584 49.5827 69.8871C50.0555 69.615 50.5103 69.3126 50.9441 68.9818C51.3525 68.6346 51.7541 68.3011 52.1285 67.9131L54.368 65.7009L62.5363 57.6347L74.3599 45.9744L77.5728 42.8636L78.4168 42.0468C78.6074 41.8698 78.7163 41.7813 78.7163 41.7813C78.7163 41.7813 78.6278 41.8834 78.4441 42.074L77.6204 42.9181L74.4416 46.1173L62.6928 57.8593L54.5722 65.9595L52.3463 68.1786C51.9651 68.553 51.5499 68.9137 51.1415 69.2677C50.7073 69.6083 50.2527 69.922 49.7801 70.207C47.7485 71.4124 45.4093 71.9991 43.0493 71.8951C40.6893 71.7911 38.4108 71.001 36.493 69.6216C35.5171 68.8666 34.6063 68.031 33.7702 67.1235C33.3278 66.6947 32.9126 66.2114 32.4973 65.7621C32.1077 65.2582 31.7529 64.7283 31.4355 64.1761C30.7904 63.0547 30.3307 61.8364 30.0741 60.5684C29.8266 59.2763 29.783 57.9533 29.9448 56.6476C30.2847 53.9668 31.5087 51.4757 33.4231 49.5685L54.8377 28.3241L59.6502 23.5592C60.4108 22.7727 61.2554 22.072 62.1687 21.4695C64.263 20.1357 66.7179 19.4808 69.1983 19.5941C71.6786 19.7074 74.0636 20.5834 76.0276 22.1025C76.7015 22.6396 77.3362 23.2243 77.9267 23.8519L78.7912 24.73L79.6149 25.5945C80.564 26.7697 81.2822 28.1139 81.7318 29.5561C82.1288 30.7991 82.3264 32.0972 82.3172 33.402C82.292 34.498 82.1296 35.5865 81.8339 36.6421C81.4239 38.0979 80.7299 39.4582 79.7918 40.6446C79.5515 40.955 79.2899 41.2484 79.009 41.5227L78.7027 41.8086Z" fill="#263238"/>
<path id="Vector_11" d="M43.3748 63.2031C43.1688 61.1679 43.0801 59.1224 43.1093 57.0769C43.0195 55.0348 43.0513 52.9891 43.2046 50.9507C43.4054 52.9863 43.4917 55.0316 43.4632 57.0769C43.5495 59.119 43.5199 61.1644 43.3748 63.2031Z" fill="white"/>
<path id="Vector_12" d="M49.3032 56.5935C47.2722 56.8686 45.2264 57.0209 43.177 57.0496C41.1384 57.1969 39.0932 57.231 37.0508 57.1517C39.0819 56.8771 41.1276 56.7248 43.177 56.6956C45.2156 56.5481 47.2608 56.514 49.3032 56.5935Z" fill="white"/>
<path id="Vector_13" d="M67.6344 38.48C67.4291 36.4447 67.3405 34.3992 67.3689 32.3538C67.2786 30.3116 67.3105 28.2659 67.4642 26.2275C67.665 28.2632 67.7514 30.3085 67.7229 32.3538C67.8091 34.3959 67.7796 36.4412 67.6344 38.48Z" fill="white"/>
<path id="Vector_14" d="M73.5635 31.8708C71.5316 32.1377 69.4863 32.29 67.4373 32.3268C65.3988 32.4782 63.3532 32.51 61.311 32.4221C63.3429 32.1561 65.3883 32.0061 67.4373 31.9729C69.4757 31.8212 71.5212 31.7871 73.5635 31.8708Z" fill="white"/>
<path id="Vector_15" d="M53.5599 7.82189C55.477 7.79211 57.0069 6.2139 56.9771 4.29686C56.9473 2.37982 55.3691 0.84989 53.4521 0.879671C51.535 0.909452 50.0051 2.48766 50.0349 4.4047C50.0647 6.32175 51.6429 7.85167 53.5599 7.82189Z" fill="#263238"/>
<path id="Vector_16" d="M64.3058 83.7937C64.0881 83.6511 63.8872 83.4844 63.7068 83.2968C63.3324 82.9633 62.8083 82.4664 62.1616 81.8537C60.8751 80.6285 59.1053 78.9063 57.179 76.9936C55.2526 75.0809 53.5168 73.3315 52.278 72.045C51.5729 71.386 50.9324 70.6612 50.3652 69.8804C50.5647 70.0451 50.7556 70.2201 50.937 70.4045L52.455 71.868C53.8163 73.1681 55.5181 74.8698 57.424 76.7417C59.3299 78.6137 61.0929 80.4039 62.3386 81.6768L63.8021 83.2015C63.9934 83.3777 64.1625 83.5766 64.3058 83.7937Z" fill="#263238"/>
<path id="Vector_17" d="M93.7868 54.095C93.568 53.9539 93.3669 53.7871 93.1878 53.5981C92.8202 53.2646 92.2961 52.7745 91.6494 52.1618C90.3561 50.9298 88.5931 49.2145 86.6599 47.3017C84.7268 45.389 82.9978 43.6328 81.7658 42.3463C81.062 41.6885 80.4216 40.966 79.853 40.1885C80.0559 40.3468 80.247 40.5197 80.4248 40.7058L81.9427 42.1693L86.9118 47.0498C88.845 48.9626 90.5807 50.7052 91.8264 51.9781L93.2899 53.5028C93.4813 53.677 93.6485 53.8762 93.7868 54.095Z" fill="#263238"/>
<path id="Vector_18" d="M79.6994 44.4322L54.8008 69.7339L57.576 72.4649L82.4746 47.1632L79.6994 44.4322Z" fill="#263238"/>
<path id="Vector_19" d="M51.4342 74.3597C51.4295 74.5096 51.3798 74.6546 51.2917 74.776C51.2037 74.8973 51.0811 74.9895 50.9401 75.0404C50.799 75.0913 50.6459 75.0988 50.5006 75.0617C50.3553 75.0246 50.2244 74.9447 50.125 74.8324C50.0257 74.7201 49.9623 74.5805 49.9431 74.4317C49.924 74.283 49.95 74.1319 50.0177 73.9981C50.0854 73.8643 50.1917 73.7539 50.3229 73.6812C50.4541 73.6085 50.6041 73.5769 50.7535 73.5905C50.9442 73.6061 51.1216 73.6949 51.2484 73.8382C51.3753 73.9816 51.4418 74.1684 51.4342 74.3597Z" fill="#263238"/>
<path id="Vector_20" d="M57.1108 80.3562C57.0871 80.5421 56.9944 80.7123 56.8512 80.8333C56.708 80.9542 56.5246 81.017 56.3374 81.0093C56.1501 81.0016 55.9725 80.924 55.8397 80.7917C55.7069 80.6594 55.6286 80.4821 55.6201 80.2949C55.6439 80.109 55.7365 79.9387 55.8797 79.8178C56.0229 79.6969 56.2063 79.634 56.3936 79.6417C56.5808 79.6494 56.7584 79.7271 56.8912 79.8594C57.024 79.9916 57.1024 80.1689 57.1108 80.3562Z" fill="#263238"/>
<path id="Vector_21" d="M84.8016 40.3859C84.7843 40.5773 84.6941 40.7546 84.5497 40.8813C84.4052 41.008 84.2176 41.0744 84.0256 41.0666C83.922 41.0713 83.8185 41.0543 83.7217 41.0169C83.625 40.9795 83.537 40.9223 83.4635 40.8491C83.39 40.7759 83.3325 40.6882 83.2947 40.5916C83.2569 40.4949 83.2395 40.3915 83.2438 40.2878C83.2481 40.1842 83.2738 40.0825 83.3194 39.9893C83.3651 39.8961 83.4296 39.8135 83.5088 39.7465C83.5881 39.6796 83.6804 39.6298 83.7799 39.6005C83.8794 39.5711 83.984 39.5627 84.0869 39.5759C84.1884 39.5782 84.2882 39.6014 84.3802 39.6442C84.4723 39.687 84.5544 39.7484 84.6216 39.8244C84.6887 39.9005 84.7394 39.9897 84.7703 40.0863C84.8013 40.183 84.812 40.285 84.8016 40.3859Z" fill="#263238"/>
<path id="Vector_22" d="M90.5055 46.3831C90.5015 46.4805 90.4783 46.5762 90.4373 46.6647C90.3963 46.7532 90.3383 46.8327 90.2666 46.8988C90.1948 46.9648 90.1108 47.0161 90.0192 47.0496C89.9277 47.0832 89.8304 47.0984 89.733 47.0944C89.6355 47.0904 89.5398 47.0672 89.4513 47.0262C89.3629 46.9852 89.2833 46.9272 89.2173 46.8554C89.1512 46.7837 89.1 46.6996 89.0664 46.6081C89.0328 46.5165 89.0176 46.4193 89.0216 46.3218C89.0257 46.2244 89.0488 46.1287 89.0898 46.0402C89.1308 45.9517 89.1889 45.8722 89.2606 45.8062C89.3323 45.7401 89.4164 45.6888 89.5079 45.6553C89.5995 45.6217 89.6968 45.6065 89.7942 45.6105C89.8916 45.6145 89.9873 45.6377 90.0758 45.6787C90.1643 45.7197 90.2438 45.7777 90.3099 45.8495C90.3759 45.9212 90.4272 46.0053 90.4608 46.0968C90.4943 46.1884 90.5096 46.2856 90.5055 46.3831Z" fill="#263238"/>
<path id="Vector_23" d="M29.5499 75.1625C29.0526 74.6679 28.5277 74.202 27.9775 73.767C27.467 73.3654 26.8203 72.9298 26.16 72.3444C25.4348 71.7123 24.8465 70.9386 24.4311 70.0709C23.6757 68.4849 23.4859 66.6881 23.8933 64.9793C24.0152 64.4693 24.2028 63.9774 24.4515 63.5158C24.6421 63.1959 24.751 63.0257 24.7714 63.0393C24.516 63.6892 24.3045 64.3555 24.1384 65.0338C23.8148 66.6842 24.0296 68.395 24.751 69.9143C25.5678 71.725 27.1539 72.7188 28.1545 73.5696C28.7332 73.9892 29.2101 74.5336 29.5499 75.1625Z" fill="white"/>
<path id="Vector_24" d="M59.1395 20.3872C59.2076 20.4553 52.0535 27.5209 43.1637 36.1588C34.2739 44.7968 26.9973 51.7535 26.9292 51.6854C26.8611 51.6174 34.0084 44.5314 42.9118 35.907C51.8153 27.2826 59.0715 20.3191 59.1395 20.3872Z" fill="white"/>
<path id="Vector_25" d="M14.8947 42.4009C14.8947 42.4417 14.5407 42.4009 14.0846 42.0946C13.478 41.6915 13.053 41.0671 12.9003 40.3549C12.7477 39.6427 12.8796 38.899 13.2678 38.2827C13.5673 37.813 13.8668 37.6361 13.894 37.6701C13.9213 37.7041 13.7034 37.9492 13.4924 38.3984C13.212 38.9824 13.1261 39.6408 13.2474 40.2771C13.4013 40.9143 13.76 41.4835 14.2684 41.8972C14.6156 42.2239 14.9491 42.3464 14.8947 42.4009Z" fill="white"/>
<path id="Vector_26" d="M52.7002 6.88242C52.7002 6.92326 52.3122 6.88242 51.8289 6.53527C51.5167 6.30894 51.254 6.02122 51.0569 5.68976C50.8598 5.3583 50.7325 4.99008 50.6828 4.60767C50.6331 4.22527 50.662 3.83674 50.7678 3.46591C50.8736 3.09507 51.054 2.74975 51.2979 2.45112C51.6791 1.99505 52.0331 1.85211 52.0535 1.88614C52.0739 1.92018 51.8016 2.1448 51.5021 2.56683C51.1015 3.14492 50.9292 3.8509 51.0185 4.54854C51.1077 5.24619 51.4522 5.88606 51.9854 6.34468C52.387 6.69864 52.7206 6.82797 52.7002 6.88242Z" fill="white"/>
<path id="Vector_27" d="M78.4712 12.3417C77.5207 12.4673 76.5841 12.6815 75.6736 12.9816C74.8075 13.3887 73.9804 13.874 73.2026 14.4315C73.7565 13.5926 74.5765 12.9644 75.5306 12.648C76.4495 12.2217 77.4842 12.114 78.4712 12.3417Z" fill="white"/>
<path id="Vector_28" d="M50.2155 85.0057C48.437 83.4251 46.7399 81.7553 45.1307 80.0026C42.408 77.1709 40.2366 74.8225 40.3115 74.7544C40.3863 74.6864 42.653 76.9259 45.3894 79.7575C48.1258 82.5892 50.2836 84.9376 50.2155 85.0057Z" fill="white"/>
<path id="Vector_29" d="M128.781 248.48H99.6543V289.764H128.781V248.48Z" fill="#FF6915"/>
<path id="Vector_30" d="M99.8789 289.057H128.563C129.592 289.057 130.579 289.465 131.307 290.193C132.034 290.921 132.443 291.908 132.443 292.937V293.304H95.9922V292.937C95.9922 292.426 96.0928 291.921 96.2882 291.45C96.4836 290.979 96.77 290.551 97.131 290.191C97.492 289.83 97.9205 289.545 98.3921 289.35C98.8636 289.155 99.3688 289.056 99.8789 289.057Z" fill="#263238"/>
<path id="Vector_31" d="M136.909 293.304H92.6704V300.029H136.909V293.304Z" fill="#FF6915"/>
<path id="Vector_32" d="M128.625 285.231C128.625 285.326 122.172 285.408 114.208 285.408C106.243 285.408 99.7837 285.326 99.7837 285.231C99.7837 285.136 106.237 285.054 114.208 285.054C122.178 285.054 128.625 285.129 128.625 285.231Z" fill="#263238"/>
<path id="Vector_33" d="M128.625 280.317C128.625 280.419 122.172 280.494 114.208 280.494C106.243 280.494 99.7837 280.419 99.7837 280.317C99.7837 280.215 106.237 280.14 114.208 280.14C122.178 280.14 128.625 280.221 128.625 280.317Z" fill="#263238"/>
<path id="Vector_34" d="M128.625 275.497C128.625 275.593 122.172 275.674 114.208 275.674C106.243 275.674 99.7837 275.593 99.7837 275.497C99.7837 275.402 106.237 275.32 114.208 275.32C122.178 275.32 128.625 275.402 128.625 275.497Z" fill="#263238"/>
<path id="Vector_35" d="M128.625 270.59C128.625 270.685 122.172 270.767 114.208 270.767C106.243 270.767 99.7837 270.685 99.7837 270.59C99.7837 270.494 106.237 270.413 114.208 270.413C122.178 270.413 128.625 270.522 128.625 270.59Z" fill="#263238"/>
<path id="Vector_36" d="M128.625 265.757C128.625 265.859 122.172 265.934 114.208 265.934C106.243 265.934 99.7837 265.859 99.7837 265.757C99.7837 265.654 106.237 265.58 114.208 265.58C122.178 265.58 128.625 265.668 128.625 265.757Z" fill="#263238"/>
<path id="Vector_37" d="M128.625 260.856C128.625 260.958 122.172 261.033 114.208 261.033C106.243 261.033 99.7837 260.958 99.7837 260.856C99.7837 260.754 106.237 260.679 114.208 260.679C122.178 260.679 128.625 260.76 128.625 260.856Z" fill="#263238"/>
<path id="Vector_38" d="M128.625 256.036C128.625 256.132 122.172 256.213 114.208 256.213C106.243 256.213 99.7837 256.132 99.7837 256.036C99.7837 255.941 106.237 255.859 114.208 255.859C122.178 255.859 128.625 255.934 128.625 256.036Z" fill="#263238"/>
<path id="Vector_39" d="M128.625 251.128C128.625 251.223 122.172 251.305 114.208 251.305C106.243 251.305 99.7837 251.223 99.7837 251.128C99.7837 251.033 106.237 250.951 114.208 250.951C122.178 250.951 128.625 251.026 128.625 251.128Z" fill="#263238"/>
<g id="Group" opacity="0.3">
<path id="Vector_40" opacity="0.3" d="M99.6542 254.233L128.638 253.429V249.223H99.3955L99.6542 254.233Z" fill="black"/>
</g>
<path id="Vector_41" d="M174.401 248.48H145.274V289.764H174.401V248.48Z" fill="#FF6915"/>
<path id="Vector_42" d="M145.499 289.057H174.183C175.212 289.057 176.199 289.465 176.927 290.193C177.655 290.921 178.063 291.908 178.063 292.937V293.304H141.612V292.937C141.612 292.426 141.713 291.921 141.908 291.45C142.104 290.979 142.39 290.551 142.751 290.191C143.112 289.83 143.541 289.545 144.012 289.35C144.484 289.155 144.989 289.056 145.499 289.057Z" fill="#263238"/>
<path id="Vector_43" d="M182.529 293.304H138.291V300.029H182.529V293.304Z" fill="#FF6915"/>
<path id="Vector_44" d="M174.231 285.231C174.231 285.326 167.778 285.408 159.814 285.408C151.85 285.408 145.39 285.326 145.39 285.231C145.39 285.136 151.843 285.054 159.814 285.054C167.785 285.054 174.231 285.129 174.231 285.231Z" fill="#263238"/>
<path id="Vector_45" d="M174.231 280.317C174.231 280.419 167.778 280.494 159.814 280.494C151.85 280.494 145.39 280.419 145.39 280.317C145.39 280.215 151.843 280.14 159.814 280.14C167.785 280.14 174.231 280.221 174.231 280.317Z" fill="#263238"/>
<path id="Vector_46" d="M174.231 275.497C174.231 275.593 167.778 275.674 159.814 275.674C151.85 275.674 145.39 275.593 145.39 275.497C145.39 275.402 151.843 275.32 159.814 275.32C167.785 275.32 174.231 275.402 174.231 275.497Z" fill="#263238"/>
<path id="Vector_47" d="M174.231 270.59C174.231 270.685 167.778 270.767 159.814 270.767C151.85 270.767 145.39 270.685 145.39 270.59C145.39 270.494 151.843 270.413 159.814 270.413C167.785 270.413 174.231 270.522 174.231 270.59Z" fill="#263238"/>
<path id="Vector_48" d="M174.231 265.757C174.231 265.859 167.778 265.934 159.814 265.934C151.85 265.934 145.39 265.859 145.39 265.757C145.39 265.654 151.843 265.58 159.814 265.58C167.785 265.58 174.231 265.668 174.231 265.757Z" fill="#263238"/>
<path id="Vector_49" d="M174.231 260.856C174.231 260.958 167.778 261.033 159.814 261.033C151.85 261.033 145.39 260.958 145.39 260.856C145.39 260.754 151.843 260.679 159.814 260.679C167.785 260.679 174.231 260.76 174.231 260.856Z" fill="#263238"/>
<path id="Vector_50" d="M174.231 256.036C174.231 256.132 167.778 256.213 159.814 256.213C151.85 256.213 145.39 256.132 145.39 256.036C145.39 255.941 151.843 255.859 159.814 255.859C167.785 255.859 174.231 255.934 174.231 256.036Z" fill="#263238"/>
<path id="Vector_51" d="M174.231 251.128C174.231 251.223 167.778 251.305 159.814 251.305C151.85 251.305 145.39 251.223 145.39 251.128C145.39 251.033 151.843 250.951 159.814 250.951C167.785 250.951 174.231 251.026 174.231 251.128Z" fill="#263238"/>
<g id="Group_2" opacity="0.3">
<path id="Vector_52" opacity="0.3" d="M145.274 254.233L174.258 253.429V249.223H145.016L145.274 254.233Z" fill="black"/>
</g>
<path id="Vector_53" d="M175.824 135.822L176.544 132.971C176.625 132.651 176.83 132.376 177.114 132.206C177.397 132.037 177.737 131.987 178.057 132.068L189.725 135.014L188.392 140.294L176.73 137.35C176.41 137.269 176.135 137.064 175.966 136.78C175.796 136.497 175.747 136.157 175.828 135.837L175.824 135.822Z" fill="#FF6915"/>
<g id="Group_3" opacity="0.3">
<path id="Vector_54" opacity="0.3" d="M175.824 135.822L176.544 132.971C176.625 132.651 176.83 132.376 177.114 132.206C177.397 132.037 177.737 131.987 178.057 132.068L189.725 135.014L188.392 140.294L176.73 137.35C176.41 137.269 176.135 137.064 175.966 136.78C175.796 136.497 175.747 136.157 175.828 135.837L175.824 135.822Z" fill="black"/>
</g>
<path id="Vector_55" d="M173.284 145.915L174.274 141.995C174.406 141.47 174.742 141.019 175.207 140.741C175.672 140.463 176.228 140.382 176.753 140.515L187.623 143.259L185.624 151.179L174.78 148.441C174.514 148.378 174.263 148.261 174.042 148.099C173.822 147.936 173.636 147.731 173.496 147.495C173.357 147.26 173.266 146.998 173.229 146.727C173.193 146.455 173.211 146.179 173.284 145.915Z" fill="#FF6915"/>
<path id="Vector_56" d="M184.651 133.73L181.253 147.188L186.335 148.471L189.733 135.014L184.651 133.73Z" fill="#FF6915"/>
<path id="Vector_57" d="M193.073 188.443C193.073 188.443 214.821 187.558 213.024 166.716C211.662 150.753 187.899 150.61 187.899 150.61L193.971 137.344C193.971 137.344 221.716 139.76 227.196 159.963C233.383 182.794 219.075 201.41 193.073 200.975V188.443Z" fill="#FF6915"/>
<path id="Vector_58" d="M195.751 135.47L187.483 133.643L183.418 152.041L191.686 153.868L195.751 135.47Z" fill="#263238"/>
<path id="Vector_59" d="M192.038 151.931C192.038 152.088 190.159 151.768 187.919 151.251C186.549 150.995 185.203 150.621 183.896 150.134C185.276 150.28 186.642 150.537 187.981 150.903C189.104 151.162 190.118 151.407 190.846 151.584L191.711 151.816C191.824 151.841 191.934 151.88 192.038 151.931Z" fill="#455A64"/>
<path id="Vector_60" d="M192.766 148.616C192.766 148.773 190.894 148.453 188.648 147.936C187.279 147.684 185.934 147.311 184.632 146.819C186.012 146.967 187.377 147.224 188.716 147.589C189.839 147.847 190.847 148.092 191.582 148.269L192.439 148.501C192.553 148.523 192.664 148.562 192.766 148.616Z" fill="#455A64"/>
<path id="Vector_61" d="M193.644 145.274C193.644 145.437 191.765 145.118 189.56 144.593C188.189 144.338 186.843 143.964 185.537 143.477C186.917 143.624 188.283 143.881 189.621 144.246C190.738 144.498 191.752 144.743 192.48 144.927L193.345 145.152L193.644 145.274Z" fill="#455A64"/>
<path id="Vector_62" d="M194.23 141.993C194.23 142.149 192.358 141.829 190.145 141.312C188.774 141.06 187.428 140.687 186.123 140.196C187.502 140.342 188.868 140.599 190.207 140.965C191.33 141.224 192.337 141.469 193.072 141.646L193.93 141.877C194.035 141.902 194.136 141.941 194.23 141.993Z" fill="#455A64"/>
<path id="Vector_63" d="M195.081 138.889C195.081 139.052 193.209 138.732 190.997 138.208C189.626 137.952 188.28 137.579 186.974 137.092C188.353 137.238 189.719 137.495 191.058 137.861C192.181 138.113 193.195 138.358 193.923 138.542L194.788 138.766C194.888 138.801 194.986 138.842 195.081 138.889Z" fill="#455A64"/>
<path id="Vector_64" d="M197.824 200.839C197.617 200.242 197.469 199.626 197.381 199.001C197.164 197.857 196.905 196.278 196.701 194.501C196.497 192.725 196.394 191.098 196.354 189.961C196.29 189.332 196.29 188.698 196.354 188.069C196.49 188.684 196.568 189.311 196.585 189.941C196.687 191.098 196.83 192.698 197.034 194.461C197.238 196.224 197.449 197.81 197.606 198.96C197.734 199.578 197.807 200.207 197.824 200.839Z" fill="#263238"/>
<path id="Vector_65" d="M204.583 199.784C203.807 197.656 203.146 195.489 202.602 193.29C201.94 191.122 201.393 188.92 200.962 186.694C201.734 188.825 202.396 190.995 202.943 193.195C203.601 195.362 204.149 197.561 204.583 199.784Z" fill="#263238"/>
<path id="Vector_66" d="M213.67 196.53C213.232 195.963 212.843 195.359 212.506 194.726C211.771 193.501 210.866 192.003 209.858 190.288L207.19 185.864C206.793 185.268 206.442 184.642 206.142 183.992C206.613 184.531 207.034 185.112 207.401 185.727C208.136 186.83 209.123 188.375 210.124 190.104C211.124 191.833 212.064 193.433 212.69 194.604C213.07 195.217 213.398 195.861 213.67 196.53Z" fill="#263238"/>
<path id="Vector_67" d="M221.314 190.404C221.246 190.479 218.544 188.362 215.27 185.639C211.996 182.916 209.389 180.656 209.45 180.582C209.511 180.507 212.22 182.624 215.494 185.346C218.768 188.069 221.376 190.322 221.314 190.404Z" fill="#263238"/>
<path id="Vector_68" d="M226.236 182.032C226.195 182.127 222.996 180.874 219.082 179.248C215.168 177.621 212.03 176.225 212.071 176.137C212.112 176.048 215.311 177.294 219.218 178.921C223.125 180.548 226.27 181.909 226.236 182.032Z" fill="#263238"/>
<path id="Vector_69" d="M228.646 172.931C227.877 172.911 227.11 172.839 226.352 172.713L220.852 172.032L215.345 171.352C214.579 171.298 213.818 171.181 213.071 171.004C213.84 170.974 214.609 171.006 215.372 171.1C216.788 171.209 218.741 171.399 220.892 171.665C223.043 171.93 224.977 172.209 226.392 172.447C227.156 172.545 227.91 172.706 228.646 172.931Z" fill="#263238"/>
<path id="Vector_70" d="M227.522 163.523C226.864 163.811 226.18 164.039 225.48 164.204C224.194 164.579 222.397 165.041 220.396 165.463C218.394 165.885 216.563 166.185 215.236 166.362C214.524 166.489 213.802 166.551 213.078 166.546C213.775 166.351 214.485 166.205 215.202 166.11C216.516 165.872 218.326 165.538 220.321 165.116C222.315 164.694 224.112 164.272 225.412 163.959C226.104 163.764 226.81 163.618 227.522 163.523Z" fill="#263238"/>
<path id="Vector_71" d="M224.786 154.498C224.827 154.586 221.914 156.145 218.272 157.983C214.63 159.821 211.642 161.236 211.594 161.148C211.547 161.059 214.467 159.501 218.109 157.663C221.75 155.825 224.738 154.416 224.786 154.498Z" fill="#263238"/>
<path id="Vector_72" d="M219.157 147.18C219.218 147.255 216.795 149.446 213.711 152.081C210.627 154.715 208.129 156.784 208.068 156.709C208.007 156.635 210.423 154.443 213.514 151.808C216.604 149.174 219.116 147.105 219.157 147.18Z" fill="#263238"/>
<path id="Vector_73" d="M209.715 141.748C209.797 141.796 208.266 144.471 206.312 147.759C205.171 149.767 203.926 151.714 202.582 153.592C202.5 153.544 204.032 150.869 205.985 147.575C207.129 145.571 208.374 143.626 209.715 141.748Z" fill="#263238"/>
<path id="Vector_74" d="M201.241 138.345C200.674 140.615 199.992 142.855 199.199 145.056C197.987 148.732 196.925 151.686 196.837 151.659C197.4 149.385 198.081 147.143 198.879 144.941C199.552 142.703 200.341 140.501 201.241 138.345Z" fill="#263238"/>
<g id="Group_4" opacity="0.3">
<path id="Vector_75" opacity="0.3" d="M211.451 177.389C209.838 180.915 207.052 183.773 203.569 185.476C201.876 186.373 200.085 187.072 198.232 187.559C202.391 189.778 207.823 188.45 211.458 185.448C215.093 182.447 217.012 177.682 217.142 172.965C217.249 170.725 216.847 168.491 215.964 166.43C215.038 164.388 213.507 162.264 211.485 161.325C212.085 162.445 212.512 163.65 212.751 164.898C213.609 169.097 213.156 173.457 211.451 177.389Z" fill="black"/>
</g>
<path id="Vector_76" d="M51.5908 214.105C51.8392 214.337 52.067 214.59 52.2715 214.861C52.6935 215.358 53.2653 216.1 53.946 217.046C55.6909 219.521 57.1974 222.156 58.4454 224.915C59.6953 227.679 60.6733 230.558 61.3656 233.512C61.631 234.642 61.808 235.554 61.9033 236.235C61.9689 236.567 62.0076 236.904 62.019 237.242C61.9028 236.925 61.8184 236.596 61.7672 236.262C61.631 235.629 61.4132 234.717 61.1273 233.6C60.3583 230.686 59.3544 227.838 58.1255 225.085C56.8844 222.338 55.4205 219.697 53.7486 217.189C53.102 216.229 52.5642 215.467 52.1762 214.943C51.9538 214.684 51.7577 214.403 51.5908 214.105Z" fill="#263238"/>
<path id="Vector_77" d="M48.6976 211.696C48.7656 211.621 49.0856 211.798 49.4191 212.097C49.7526 212.397 49.9637 212.69 49.9024 212.778C49.8411 212.867 49.5144 212.676 49.1809 212.377C48.8473 212.077 48.6363 211.764 48.6976 211.696Z" fill="#263238"/>
<path id="Vector_78" d="M49.3649 209.695C49.4466 209.647 49.7801 210.049 50.1136 210.607C50.4472 211.165 50.6446 211.648 50.5629 211.696C50.4812 211.744 50.1409 211.342 49.8073 210.784C49.4738 210.226 49.2764 209.742 49.3649 209.695Z" fill="#263238"/>
<path id="Vector_79" d="M61.9575 237.657C61.9774 237.474 62.0115 237.291 62.0596 237.113C62.1549 236.727 62.2774 236.21 62.4272 235.561C62.7471 234.2 63.2032 232.266 63.7273 229.85C64.7756 225.017 66.0485 218.278 66.981 210.79C67.4847 207.06 67.6617 203.439 68.533 200.247C68.9294 198.734 69.544 197.287 70.3573 195.951C72.1765 193.108 75.0426 191.095 78.335 190.349C78.8543 190.229 79.3824 190.149 79.9142 190.111C80.0999 190.094 80.2867 190.094 80.4723 190.111C80.2906 190.151 80.1064 190.178 79.921 190.193C79.3964 190.264 78.876 190.364 78.3622 190.492C76.4793 190.981 74.727 191.878 73.2298 193.12C72.2034 193.973 71.3189 194.984 70.6091 196.115C69.819 197.433 69.2251 198.859 68.8461 200.349C68.0021 203.493 67.8319 207.108 67.335 210.852C66.3956 218.339 65.0819 225.071 63.9724 229.911C63.4142 232.328 62.9173 234.268 62.5633 235.602C62.3818 236.242 62.2389 236.752 62.1345 237.133C62.0902 237.313 62.031 237.488 61.9575 237.657Z" fill="#455A64"/>
<path id="Vector_80" d="M62.7676 183.679C63.2237 184.6 63.8081 185.453 64.5033 186.211C66.2792 187.956 68.5758 189.075 71.0448 189.397C73.5241 189.667 76.0302 189.562 78.478 189.083L80.7174 188.689C80.9903 188.627 81.2683 188.59 81.5479 188.58C81.2907 188.693 81.0211 188.775 80.7447 188.825C80.2205 188.954 79.465 189.138 78.5188 189.328C76.064 189.886 73.5327 190.027 71.0312 189.744C68.4863 189.419 66.1295 188.233 64.3536 186.381C63.8292 185.815 63.3973 185.169 63.0739 184.468C62.9312 184.223 62.8279 183.956 62.7676 183.679Z" fill="#263238"/>
<path id="Vector_81" d="M60.1809 181.527C60.249 181.459 60.5757 181.67 60.9025 182.004C61.2292 182.337 61.447 182.685 61.379 182.725C61.3109 182.766 60.9841 182.582 60.6574 182.256C60.3307 181.929 60.1129 181.595 60.1809 181.527Z" fill="#263238"/>
<path id="Vector_82" d="M60.9501 180.343C61.0386 180.289 61.3449 180.636 61.6308 181.112C61.9167 181.589 62.1005 182.024 62.012 182.072C61.9235 182.12 61.624 181.779 61.3313 181.303C61.0386 180.826 60.8685 180.391 60.9501 180.343Z" fill="#263238"/>
<path id="Vector_83" d="M63.0807 180.186C63.1828 180.186 63.1965 180.602 63.1216 181.085C63.0467 181.568 62.9038 181.936 62.8085 181.922C62.7132 181.909 62.6927 181.507 62.7676 181.024C62.8425 180.54 62.9854 180.173 63.0807 180.186Z" fill="#263238"/>
<path id="Vector_84" d="M69.4928 206.768C69.5096 207.172 69.4913 207.578 69.4384 207.979C69.3771 208.762 69.2614 209.885 69.098 211.267C68.7781 214.044 68.2131 217.856 67.3623 222.029C66.5114 226.201 65.5312 229.938 64.7484 232.62C64.3536 233.982 64.0133 235.037 63.7682 235.772C63.6544 236.16 63.5134 236.54 63.3462 236.909C63.415 236.51 63.5105 236.117 63.6321 235.731C63.8567 234.928 64.1494 233.852 64.5034 232.552C65.2249 229.829 66.1643 226.126 67.0151 221.961C67.866 217.795 68.465 213.997 68.853 211.24C69.0368 209.878 69.1865 208.796 69.2954 207.966C69.3371 207.563 69.403 207.163 69.4928 206.768Z" fill="#455A64"/>
<path id="Vector_85" d="M81.5615 191.01C81.5615 191.078 80.5881 191.084 79.0837 191.479C77.1211 191.987 75.3146 192.972 73.8252 194.348C72.3358 195.723 71.2099 197.446 70.5479 199.362C70.0305 200.825 69.9489 201.805 69.8672 201.792C69.8262 201.567 69.8262 201.336 69.8672 201.111C69.9428 200.492 70.075 199.882 70.262 199.287C70.8771 197.297 72.0067 195.505 73.5367 194.092C75.0667 192.68 76.9426 191.696 78.9748 191.241C79.5832 191.102 80.2029 191.018 80.8263 190.989C81.0709 190.958 81.319 190.965 81.5615 191.01Z" fill="#455A64"/>
<path id="Vector_86" d="M65.184 237.514C65.1718 237.344 65.1718 237.174 65.184 237.004C65.184 236.67 65.2656 236.173 65.3541 235.54C65.5424 233.732 66.091 231.98 66.9674 230.388C67.5391 229.387 68.3287 228.407 68.9686 227.25C69.2911 226.657 69.5207 226.019 69.6493 225.357C69.7668 224.646 69.7851 223.922 69.7037 223.206C69.5948 221.729 69.166 220.136 69.4995 218.441C69.6872 217.601 70.0592 216.813 70.5886 216.134C71.0856 215.453 71.6641 214.772 72.1202 214.092C72.5919 213.407 72.8566 212.601 72.8826 211.771C72.8728 210.95 72.7631 210.134 72.5558 209.341C72.1591 207.785 72.0256 206.175 72.161 204.576C72.356 202.316 73.115 200.142 74.3685 198.252C75.622 196.363 77.3299 194.818 79.3355 193.759C79.7764 193.532 80.2311 193.332 80.6969 193.16C80.8553 193.094 81.0193 193.041 81.187 193.004C81.0402 193.091 80.8852 193.164 80.7242 193.222C80.4178 193.365 79.9686 193.569 79.4172 193.902C77.8574 194.784 76.4823 195.958 75.3671 197.36C73.7129 199.444 72.7155 201.972 72.5014 204.623C72.3808 206.183 72.5188 207.751 72.9098 209.266C73.1252 210.086 73.2395 210.929 73.2501 211.777C73.2216 212.674 72.9357 213.544 72.4265 214.282C71.95 215.038 71.3714 215.678 70.8881 216.358C70.3823 216.994 70.0284 217.737 69.8535 218.53C69.5336 220.102 69.9352 221.675 70.0441 223.186C70.1221 223.932 70.0969 224.686 69.9692 225.425C69.8195 226.118 69.5647 226.784 69.2136 227.399C68.533 228.584 67.7434 229.55 67.1716 230.524C66.2942 232.085 65.7213 233.799 65.4835 235.574C65.3814 236.173 65.3065 236.657 65.2452 237.017C65.2411 237.185 65.2206 237.351 65.184 237.514Z" fill="#455A64"/>
<path id="Vector_87" d="M82.3375 198.062C81.7712 198.067 81.2082 198.147 80.663 198.3C79.1986 198.799 77.9541 199.793 77.1438 201.111C76.0547 202.738 75.5714 205.073 75.3127 207.646C75.0517 210.471 74.645 213.282 74.0943 216.066C73.0135 221.09 71.6499 226.048 70.0101 230.919C69.3975 232.79 68.887 234.322 68.5194 235.336C68.3492 235.826 68.2063 236.221 68.0974 236.527C68.0566 236.671 67.9971 236.808 67.9204 236.936C67.9491 236.783 67.9901 236.633 68.0429 236.487C68.1314 236.173 68.2539 235.772 68.4037 235.275L69.7651 230.823C70.9154 227.059 72.4879 221.852 73.7131 215.971C74.3121 213.037 74.7069 210.212 74.9792 207.618C75.2515 205.025 75.7756 202.649 76.9328 200.988C77.7852 199.64 79.095 198.645 80.6221 198.184C81.0339 198.069 81.4607 198.016 81.8882 198.027C82.0386 198.027 82.1889 198.038 82.3375 198.062Z" fill="#E0E0E0"/>
<path id="Vector_88" d="M57.349 235.078H70.5341C70.5341 235.078 62.5359 298.579 18.3862 298.382L18.9512 286C18.9512 286 48.9833 284.135 57.349 235.078Z" fill="#FF6915"/>
<path id="Vector_89" d="M0.700469 286.383L0.752063 283.456C0.757886 283.126 0.89468 282.811 1.13237 282.582C1.37006 282.352 1.68916 282.227 2.01948 282.233L14.0182 282.444L13.9222 287.889L1.9235 287.677C1.75762 287.674 1.59401 287.638 1.44223 287.571C1.29045 287.504 1.15358 287.408 1.03965 287.287C0.925725 287.167 0.837045 287.024 0.778799 286.869C0.720553 286.714 0.69392 286.548 0.700469 286.383Z" fill="#FF6915"/>
<g id="Group_5" opacity="0.3">
<path id="Vector_90" opacity="0.3" d="M0.700469 286.383L0.752063 283.456C0.757886 283.126 0.89468 282.811 1.13237 282.582C1.37006 282.352 1.68916 282.227 2.01948 282.233L14.0182 282.444L13.9222 287.889L1.9235 287.677C1.75762 287.674 1.59401 287.638 1.44223 287.571C1.29045 287.504 1.15358 287.408 1.03965 287.287C0.925725 287.167 0.837045 287.024 0.778799 286.869C0.720553 286.714 0.69392 286.548 0.700469 286.383Z" fill="black"/>
</g>
<path id="Vector_91" d="M0.663177 297.524L0.744044 293.481C0.754875 292.939 0.980419 292.424 1.37104 292.049C1.76166 291.673 2.28537 291.469 2.82696 291.48L14.038 291.704L13.8746 299.872L2.70444 299.649C2.42927 299.649 2.15692 299.593 1.90375 299.485C1.65058 299.378 1.42182 299.22 1.23118 299.021C1.04053 298.823 0.891928 298.588 0.794324 298.331C0.696719 298.073 0.652118 297.799 0.663177 297.524Z" fill="#FF6915"/>
<path id="Vector_92" d="M8.81301 282.338L8.56836 296.215L13.8089 296.307L14.0535 282.43L8.81301 282.338Z" fill="#FF6915"/>
<path id="Vector_93" d="M20.018 281.499L11.5508 281.603L11.781 300.443L20.2481 300.339L20.018 281.499Z" fill="#263238"/>
<path id="Vector_94" d="M20.1495 298.362C20.1495 298.518 18.2844 298.634 15.9905 298.648C14.5971 298.713 13.2007 298.654 11.8179 298.471C13.1994 298.299 14.5924 298.238 15.9837 298.287C17.1341 298.287 18.1755 298.287 18.9311 298.287H19.8228C19.934 298.301 20.0434 298.326 20.1495 298.362Z" fill="#455A64"/>
<path id="Vector_95" d="M20.1085 294.972C20.1085 295.128 18.2434 295.237 15.9495 295.251C14.5563 295.316 13.1601 295.259 11.7769 295.08C13.1584 294.909 14.5514 294.848 15.9427 294.897C17.0931 294.897 18.1345 294.897 18.8901 294.897H19.7818C19.8937 294.906 20.0037 294.931 20.1085 294.972Z" fill="#455A64"/>
<path id="Vector_96" d="M20.2038 291.548C20.2038 291.704 18.3455 291.813 16.0447 291.827C14.6538 291.892 13.2599 291.835 11.8789 291.657C13.2605 291.485 14.6535 291.424 16.0447 291.473C17.1951 291.473 18.2366 291.473 18.9853 291.473H19.877C19.9886 291.484 20.0984 291.509 20.2038 291.548Z" fill="#455A64"/>
<path id="Vector_97" d="M20.027 288.219C20.027 288.376 18.1619 288.491 15.8611 288.505C14.47 288.57 13.0759 288.511 11.6953 288.328C13.0769 288.157 14.4699 288.095 15.8611 288.144C17.0115 288.144 18.053 288.144 18.8085 288.144H19.7003C19.8113 288.159 19.9207 288.184 20.027 288.219Z" fill="#455A64"/>
<path id="Vector_98" d="M20.1495 284.973C20.1495 285.129 18.2844 285.245 15.9905 285.258C14.5973 285.32 13.2014 285.263 11.8179 285.088C13.1987 284.909 14.5924 284.847 15.9837 284.904C17.1341 284.904 18.1755 284.904 18.9311 284.904H19.8228C19.9337 284.916 20.0432 284.939 20.1495 284.973Z" fill="#455A64"/>
<path id="Vector_99" d="M24.7781 297.749C24.7781 297.749 24.7781 297.858 24.819 298.089V298.484L24.7032 298.103C24.1532 296.05 23.7192 293.969 23.4031 291.868C23.1104 290.036 22.913 288.376 22.7973 287.164C22.703 286.513 22.6734 285.854 22.7088 285.197C22.8717 285.834 22.9855 286.482 23.0492 287.137C23.2193 288.335 23.4576 289.989 23.7299 291.813C24.1995 294.767 24.6828 297.259 24.7849 298.075H24.676C24.7373 297.844 24.7577 297.749 24.7781 297.749Z" fill="#263238"/>
<path id="Vector_100" d="M31.0404 296.53C30.1956 294.434 29.464 292.293 28.8485 290.118C28.1131 287.982 27.4928 285.807 26.9902 283.604C27.835 285.701 28.5666 287.841 29.1821 290.016C29.9175 292.153 30.5378 294.327 31.0404 296.53Z" fill="#263238"/>
<path id="Vector_101" d="M38.4398 293.406C37.2493 291.408 36.1633 289.35 35.1861 287.239C33.4844 283.781 32.1706 280.95 32.2591 280.909C33.4464 282.91 34.5301 284.97 35.506 287.083C37.2145 290.534 38.5215 293.365 38.4398 293.406Z" fill="#263238"/>
<path id="Vector_102" d="M44.9946 288.505C43.4953 286.788 42.091 284.991 40.7879 283.121C39.3843 281.321 38.0734 279.451 36.8604 277.519C38.3577 279.241 39.7641 281.041 41.0738 282.91C43.3133 285.946 45.0695 288.45 44.9946 288.505Z" fill="#263238"/>
<path id="Vector_103" d="M50.7191 283.073C49.0041 281.607 47.3681 280.051 45.8181 278.411C44.1871 276.854 42.6376 275.213 41.1758 273.496C42.8877 274.964 44.5214 276.52 46.07 278.159C47.702 279.717 49.2537 281.357 50.7191 283.073Z" fill="#263238"/>
<path id="Vector_104" d="M55.4367 276.552C54.839 276.304 54.2668 275.999 53.7282 275.64L49.6985 273.285L45.6756 270.936C45.098 270.64 44.5488 270.292 44.0352 269.895C44.6453 270.113 45.2333 270.389 45.7913 270.719C46.8532 271.27 48.3031 272.08 49.8755 272.979C51.4479 273.877 52.8501 274.776 53.8507 275.429C54.4124 275.755 54.9432 276.13 55.4367 276.552Z" fill="#263238"/>
<path id="Vector_105" d="M58.629 269.95C58.0551 269.756 57.5011 269.508 56.9749 269.208C55.9743 268.718 54.5857 268.044 53.0474 267.329C51.509 266.614 50.0931 266.002 49.0721 265.552C48.504 265.341 47.9551 265.082 47.4316 264.776C48.0265 264.893 48.6064 265.075 49.1606 265.321C50.2089 265.709 51.6451 266.294 53.1971 267.009C54.7491 267.724 56.1173 268.438 57.0907 268.983C57.6347 269.253 58.1501 269.577 58.629 269.95Z" fill="#263238"/>
<path id="Vector_106" d="M62.4408 263.565C61.8034 263.524 61.1716 263.419 60.5553 263.251C59.3981 263 57.8325 262.612 56.0831 262.108C54.3338 261.604 52.8022 261.08 51.6927 260.672C51.0819 260.483 50.4913 260.235 49.9297 259.93C50.558 260.044 51.1752 260.213 51.7744 260.433C52.8975 260.781 54.4563 261.264 56.1784 261.795C57.9006 262.326 59.473 262.721 60.6097 263.034C61.2344 263.157 61.847 263.335 62.4408 263.565Z" fill="#263238"/>
<path id="Vector_107" d="M64.4763 257.125C62.3676 257.032 60.2656 256.823 58.1799 256.499C56.0807 256.289 53.9946 255.964 51.9312 255.525C54.0399 255.618 56.1419 255.827 58.2276 256.152C60.3278 256.353 62.4143 256.678 64.4763 257.125Z" fill="#263238"/>
<path id="Vector_108" d="M66.6408 250.829C66.0303 250.876 65.4165 250.858 64.8098 250.775C63.6798 250.693 62.121 250.557 60.4057 250.387C58.6904 250.216 57.1316 250.039 56.0152 249.89C55.4031 249.847 54.7967 249.744 54.2046 249.583C54.8178 249.546 55.4332 249.566 56.0425 249.645C57.1724 249.726 58.7244 249.862 60.4397 250.033C62.1551 250.203 63.7071 250.38 64.8302 250.523C65.4418 250.57 66.0478 250.672 66.6408 250.829Z" fill="#263238"/>
<path id="Vector_109" d="M68.3083 244.73C66.1292 244.971 63.9389 245.099 61.7464 245.111C59.5586 245.233 57.3656 245.233 55.1777 245.111C57.3569 244.869 59.5472 244.742 61.7396 244.73C63.9276 244.612 66.1203 244.612 68.3083 244.73Z" fill="#263238"/>
<path id="Vector_110" d="M68.9957 239.747C68.4077 239.901 67.8056 239.994 67.1987 240.026C66.0824 240.142 64.5372 240.237 62.8287 240.244C61.1201 240.251 59.5681 240.169 58.4518 240.067C57.8454 240.044 57.2432 239.957 56.6548 239.809C57.2571 239.755 57.8631 239.755 58.4654 239.809C59.5818 239.849 61.1201 239.897 62.8219 239.883C64.5236 239.87 66.0688 239.815 67.1783 239.768C67.7823 239.707 68.3905 239.7 68.9957 239.747Z" fill="#263238"/>
<path id="Vector_111" d="M57.9209 236.963C57.9309 237.019 57.9309 237.077 57.9209 237.133V237.637C57.9209 238.079 57.9209 238.733 57.8733 239.57C57.7614 241.944 57.4816 244.308 57.036 246.642C56.3869 250.11 55.395 253.506 54.075 256.778C50.8728 264.843 45.7288 271.993 39.0998 277.593C36.4092 279.878 33.4999 281.891 30.4142 283.604C28.3406 284.766 26.1863 285.779 23.968 286.633C23.192 286.946 22.5658 287.137 22.1506 287.314L21.6741 287.47C21.6199 287.493 21.5625 287.507 21.5039 287.511C21.5511 287.477 21.6041 287.451 21.6605 287.436L22.1233 287.246C22.5318 287.075 23.1512 286.864 23.9204 286.565C26.108 285.662 28.236 284.62 30.2916 283.447C37.1007 279.591 42.9973 274.311 47.5788 267.967C52.1603 261.624 55.3188 254.366 56.8386 246.69C57.3036 244.369 57.6196 242.02 57.7848 239.658C57.8597 238.828 57.8597 238.175 57.8937 237.732C57.8937 237.528 57.8937 237.364 57.8937 237.228C57.8825 237.139 57.8918 237.048 57.9209 236.963Z" fill="white"/>
<path id="Vector_112" d="M119.04 162.972C119.04 162.972 111.743 153.095 94.8555 154.559C94.8555 154.559 112.043 141.353 101.928 127.787C101.928 127.787 123.635 134.199 123.88 107.067C123.88 107.067 127.828 132.253 148.303 125.078C148.303 125.078 149.76 145.063 163.925 141.367C157.071 148.106 150.407 154.048 151.768 162.666" fill="#FF6915"/>
<g id="Group_6" opacity="0.8">
<path id="Vector_113" opacity="0.8" d="M119.04 162.972C119.04 162.972 111.743 153.095 94.8555 154.559C94.8555 154.559 112.043 141.353 101.928 127.787C101.928 127.787 123.635 134.199 123.88 107.067C123.88 107.067 127.828 132.253 148.303 125.078C148.303 125.078 149.76 145.063 163.925 141.367C157.071 148.106 150.407 154.048 151.768 162.666" fill="white"/>
</g>
<path id="Vector_114" d="M119.041 162.972C119.041 162.972 118.87 151.455 105.304 152.632C105.304 152.632 117.917 145.356 109.797 134.458C109.797 134.458 127.236 139.611 127.433 117.815C127.433 117.815 130.599 138.025 147.051 132.28C147.051 132.28 145.084 146.942 156.472 143.967C150.965 149.413 148.732 155.539 149.821 162.482" fill="#FF6915"/>
<g id="Group_7" opacity="0.6">
<path id="Vector_115" opacity="0.6" d="M119.041 162.972C119.041 162.972 118.87 151.455 105.304 152.632C105.304 152.632 117.917 145.356 109.797 134.458C109.797 134.458 127.236 139.611 127.433 117.815C127.433 117.815 130.599 138.025 147.051 132.28C147.051 132.28 145.084 146.942 156.472 143.967C150.965 149.413 148.732 155.539 149.821 162.482" fill="white"/>
</g>
<path id="Vector_116" d="M141.32 86.5713C141.275 86.7177 141.22 86.8609 141.156 87.0001L140.619 88.1981C140.38 88.7155 140.094 89.3485 139.788 90.1041C139.482 90.8597 139.107 91.6901 138.76 92.6499C138.413 93.6097 137.991 94.6443 137.617 95.7811C137.242 96.9178 136.854 98.1362 136.46 99.4228C135.718 102.009 135.01 104.868 134.451 107.945C133.893 111.022 133.567 113.949 133.362 116.631C133.281 117.992 133.192 119.251 133.179 120.449C133.165 121.647 133.145 122.764 133.179 123.778C133.213 124.792 133.233 125.718 133.26 126.501C133.287 127.283 133.328 128.005 133.376 128.543C133.424 129.081 133.437 129.516 133.458 129.85C133.475 130.003 133.475 130.159 133.458 130.313C133.423 130.162 133.398 130.01 133.383 129.857C133.351 129.521 133.303 129.085 133.24 128.55C133.172 127.985 133.104 127.29 133.063 126.507C133.022 125.725 132.94 124.772 132.934 123.785C132.927 122.798 132.879 121.647 132.934 120.443C132.988 119.238 133.015 117.958 133.083 116.61C133.458 110.75 134.502 104.951 136.194 99.3275C136.596 98.041 136.97 96.8089 137.385 95.6858C137.8 94.5626 138.188 93.5075 138.57 92.5614C138.951 91.6152 139.332 90.7644 139.659 90.0224C139.985 89.2804 140.285 88.661 140.544 88.1369L141.136 86.9661C141.183 86.8283 141.244 86.696 141.32 86.5713Z" fill="#FF6915"/>
<path id="Vector_117" d="M92.5954 81.8949C91.3545 80.7244 89.9843 79.699 88.5113 78.8386C86.9791 78.0876 85.367 77.5122 83.7056 77.1233C84.2163 77.0888 84.7293 77.1394 85.2235 77.273C86.4311 77.5195 87.5961 77.9415 88.6814 78.5255C89.7656 79.1088 90.7605 79.8446 91.6356 80.7105C92.0212 81.0473 92.3459 81.448 92.5954 81.8949Z" fill="#FF6915"/>
<path id="Vector_118" d="M97.8232 111.525C97.9295 111.604 98.0255 111.695 98.1091 111.798L98.8647 112.608C99.5454 113.288 100.437 114.371 101.526 115.712C102.615 117.053 103.861 118.686 105.175 120.551C106.488 122.416 107.843 124.54 109.164 126.814C110.484 129.087 111.628 131.334 112.608 133.396C113.588 135.459 114.378 137.358 114.99 138.971C115.603 140.584 116.073 141.905 116.352 142.824C116.479 143.25 116.588 143.604 116.678 143.885C116.724 144.008 116.754 144.136 116.767 144.267C116.699 144.154 116.647 144.032 116.61 143.906L116.216 142.871C115.896 141.966 115.399 140.659 114.752 139.066C114.105 137.473 113.282 135.595 112.308 133.539C111.335 131.483 110.164 129.271 108.85 126.991C107.537 124.71 106.182 122.621 104.902 120.742C103.623 118.863 102.391 117.216 101.322 115.868C100.253 114.52 99.382 113.431 98.7558 112.696L98.0751 111.845C97.9783 111.749 97.8938 111.642 97.8232 111.525Z" fill="#FF6915"/>
<path id="Vector_119" d="M144.628 115.003C144.596 115.114 144.548 115.22 144.485 115.317L144.029 116.167C143.818 116.535 143.573 116.984 143.307 117.529C143.042 118.073 142.715 118.659 142.409 119.346C141.728 120.708 141.047 122.355 140.367 124.22C138.916 128.28 137.965 132.502 137.535 136.792C137.351 138.766 137.269 140.557 137.276 142.061C137.276 142.81 137.276 143.49 137.31 144.103C137.344 144.716 137.351 145.213 137.378 145.635C137.406 146.057 137.412 146.315 137.426 146.601C137.447 146.714 137.447 146.829 137.426 146.941C137.393 146.833 137.373 146.721 137.365 146.608C137.331 146.349 137.297 146.029 137.249 145.641C137.201 145.253 137.147 144.709 137.12 144.11C137.092 143.511 137.031 142.83 137.031 142.068C136.998 140.298 137.061 138.528 137.222 136.765C137.612 132.443 138.569 128.191 140.067 124.118C140.678 122.456 141.38 120.829 142.17 119.244C142.49 118.563 142.851 117.971 143.123 117.44C143.396 116.909 143.668 116.467 143.893 116.079C144.117 115.691 144.274 115.48 144.41 115.255C144.472 115.163 144.545 115.078 144.628 115.003Z" fill="#FF6915"/>
<path id="Vector_120" d="M157.996 117.645C158.03 117.685 157.431 118.128 156.526 118.917C154.155 120.962 152.188 123.432 150.727 126.201C150.452 126.791 150.145 127.366 149.808 127.923C149.956 127.284 150.185 126.667 150.488 126.085C151.17 124.657 152.01 123.309 152.993 122.069C153.979 120.829 155.105 119.707 156.349 118.727C156.848 118.295 157.402 117.932 157.996 117.645Z" fill="#FF6915"/>
<path id="Vector_121" d="M101.159 135.002C101.752 135.281 102.31 135.631 102.82 136.044C104.095 136.985 105.271 138.052 106.332 139.23C107.396 140.403 108.335 141.682 109.136 143.048C109.496 143.598 109.787 144.19 110.001 144.811C109.614 144.286 109.255 143.74 108.925 143.178C108.069 141.867 107.113 140.625 106.066 139.461C105.015 138.303 103.877 137.227 102.663 136.241C102.136 135.861 101.633 135.447 101.159 135.002Z" fill="#FF6915"/>
<path id="Vector_122" d="M97.7074 128.672C97.6529 128.767 96.2643 127.991 94.3856 127.515C92.5069 127.038 90.9209 127.032 90.9209 126.923C93.3277 126.651 95.7503 127.274 97.7278 128.672H97.7074Z" fill="#FF6915"/>
<path id="Vector_123" fill-rule="evenodd" clip-rule="evenodd" d="M83.6989 107.366C83.7987 106.972 83.9497 106.592 84.1481 106.236L83.5287 105.297L84.822 103.936L85.7818 104.514C86.1326 104.308 86.5075 104.145 86.8981 104.031L87.1296 102.935L88.9879 102.901L89.2533 103.997C89.6473 104.096 90.027 104.244 90.3833 104.439L91.3226 103.827L92.684 105.12L92.0986 106.08C92.3119 106.427 92.4746 106.803 92.5819 107.196L93.6846 107.421V109.286L92.5955 109.551C92.4957 109.944 92.3447 110.321 92.1463 110.674L92.7657 111.621L91.4724 112.982L90.5058 112.397C90.1609 112.61 89.7873 112.772 89.3963 112.88L89.1444 113.962H87.2861L87.0207 112.873C86.626 112.773 86.2461 112.622 85.8907 112.424L84.9514 113.036L83.59 111.743L84.1754 110.783C83.9622 110.438 83.7995 110.065 83.6921 109.674L82.5894 109.442V107.584L83.6785 107.319L83.6989 107.366ZM86.1494 108.421C86.1588 108.815 86.2847 109.197 86.511 109.519C86.7373 109.842 87.054 110.09 87.4211 110.232C87.7882 110.375 88.1894 110.406 88.5739 110.321C88.9585 110.236 89.3092 110.039 89.582 109.755C89.8547 109.47 90.0373 109.112 90.1065 108.724C90.1758 108.337 90.1288 107.937 89.9713 107.576C89.8139 107.215 89.5531 106.909 89.2218 106.696C88.8905 106.483 88.5036 106.373 88.1098 106.379C87.8473 106.385 87.5884 106.442 87.348 106.547C87.1076 106.653 86.8904 106.805 86.7089 106.995C86.5274 107.184 86.3851 107.408 86.2903 107.653C86.1954 107.898 86.1499 108.159 86.1562 108.421H86.1494Z" fill="#FF6915"/>
<path id="Vector_124" fill-rule="evenodd" clip-rule="evenodd" d="M161.686 157.662C161.759 157.373 161.869 157.094 162.012 156.832L161.556 156.151L162.516 155.164L163.197 155.593C163.453 155.441 163.727 155.322 164.014 155.239L164.184 154.429H165.545L165.743 155.239C166.033 155.309 166.313 155.419 166.573 155.566L167.254 155.11L168.241 156.07L167.812 156.75C167.965 157.006 168.084 157.281 168.166 157.567L168.976 157.737V159.099L168.166 159.296C168.093 159.586 167.983 159.865 167.839 160.127L168.288 160.807L167.335 161.794L166.655 161.365C166.397 161.519 166.12 161.638 165.831 161.719L165.668 162.529H164.306L164.109 161.726C163.819 161.653 163.54 161.543 163.278 161.399L162.598 161.849L161.638 160.93L162.067 160.249C161.913 159.991 161.794 159.714 161.713 159.425L160.903 159.255V157.894L161.713 157.697L161.686 157.662ZM163.496 158.438C163.499 158.632 163.541 158.822 163.617 158.999C163.694 159.177 163.805 159.337 163.944 159.471C164.082 159.605 164.246 159.711 164.426 159.782C164.605 159.853 164.797 159.888 164.99 159.885C165.183 159.882 165.374 159.841 165.551 159.764C165.728 159.687 165.889 159.576 166.023 159.437C166.157 159.299 166.263 159.135 166.334 158.955C166.405 158.776 166.44 158.584 166.437 158.391C166.431 158.001 166.27 157.629 165.989 157.358C165.709 157.087 165.333 156.938 164.943 156.944C164.553 156.951 164.181 157.112 163.91 157.392C163.639 157.672 163.49 158.049 163.496 158.438Z" fill="#455A64"/>
<path id="Vector_125" d="M148.023 98.8035L144.977 105.216L147.879 106.595L150.925 100.182L148.023 98.8035Z" fill="#E0E0E0"/>
<path id="Vector_126" d="M144.961 105.222C145.247 105.316 145.526 105.427 145.798 105.555C146.316 105.773 147.044 106.086 147.915 106.481L147.745 106.542C148.507 104.875 149.562 102.601 150.747 100.11C150.672 99.8989 150.849 100.403 150.829 100.348H150.788H150.74L150.645 100.307L150.454 100.212L150.073 100.035L149.338 99.6811L147.936 99.0004L148.16 98.9255C147.282 100.75 146.493 102.329 145.928 103.445C145.655 103.963 145.431 104.405 145.247 104.773C145.169 104.944 145.075 105.108 144.968 105.263C145.009 105.102 145.068 104.947 145.145 104.8C145.301 104.432 145.499 103.99 145.723 103.473C146.234 102.322 146.969 100.682 147.861 98.7825L147.936 98.626L148.085 98.7009L149.494 99.3815L150.236 99.7287L150.611 99.9057L150.801 100.001L150.897 100.042H150.944H150.992C150.992 99.9874 151.148 100.491 151.074 100.28C149.889 102.771 148.8 105.045 147.983 106.672L147.929 106.787L147.813 106.726C146.901 106.277 146.173 105.903 145.689 105.644C145.436 105.523 145.192 105.382 144.961 105.222Z" fill="#263238"/>
<path id="Vector_127" d="M150.645 96.7748C150.294 96.6076 149.914 96.5112 149.526 96.4912C149.138 96.4712 148.749 96.528 148.383 96.6582C148.017 96.7885 147.68 96.9897 147.392 97.2503C147.104 97.5109 146.87 97.8259 146.704 98.1771L152.054 100.723C152.221 100.371 152.317 99.99 152.337 99.6011C152.356 99.2122 152.299 98.8233 152.168 98.4566C152.037 98.0899 151.835 97.7526 151.574 97.464C151.313 97.1754 150.997 96.9412 150.645 96.7748Z" fill="#E0E0E0"/>
<path id="Vector_128" d="M150.645 96.7745C150.764 96.7903 150.878 96.8321 150.978 96.897C151.266 97.0561 151.524 97.2633 151.741 97.5096C152.084 97.8951 152.319 98.3649 152.421 98.871C152.562 99.5196 152.485 100.196 152.204 100.797L152.142 100.947L151.986 100.879L149.311 99.6197L146.629 98.306L146.479 98.2379L146.554 98.0882C146.851 97.501 147.328 97.0241 147.915 96.7268C148.372 96.4933 148.88 96.3808 149.392 96.4001C149.72 96.4081 150.043 96.4774 150.345 96.6043C150.556 96.6996 150.658 96.7676 150.645 96.7813C150.235 96.6741 149.815 96.6125 149.392 96.5975C148.914 96.6071 148.447 96.7357 148.031 96.9718C147.505 97.2627 147.086 97.7133 146.833 98.2584L146.758 98.0405L149.44 99.2998L152.108 100.58L151.89 100.661C152.154 100.121 152.24 99.5108 152.136 98.9186C152.052 98.4531 151.858 98.0143 151.571 97.6389C151.297 97.3157 150.986 97.0256 150.645 96.7745Z" fill="#263238"/>
<path id="Vector_129" d="M150.713 98.4694C150.806 98.1289 150.8 97.769 150.696 97.4317C150.593 97.0943 150.395 96.7932 150.127 96.5635" fill="#E0E0E0"/>
<path id="Vector_130" d="M150.128 96.5636C150.175 96.4752 150.672 96.7474 150.863 97.3805C151.054 98.0135 150.802 98.5104 150.713 98.4696C150.625 98.4287 150.713 97.9863 150.529 97.4826C150.346 96.9789 150.066 96.6453 150.128 96.5636Z" fill="#263238"/>
<path id="Vector_131" d="M147.446 99.7153C147.99 99.8564 148.512 100.072 148.998 100.355C149.535 100.533 150.046 100.782 150.516 101.097C149.934 101.111 149.36 100.965 148.855 100.675C147.984 100.287 147.391 99.7902 147.446 99.7153Z" fill="#263238"/>
<path id="Vector_132" d="M147.085 100.464C147.632 100.623 148.155 100.851 148.644 101.145C149.178 101.32 149.686 101.568 150.155 101.88C149.573 101.901 148.997 101.757 148.494 101.464C147.629 101.029 147.003 100.546 147.085 100.464Z" fill="#263238"/>
<path id="Vector_133" d="M146.731 101.22C147.275 101.361 147.797 101.576 148.283 101.86C148.82 102.039 149.33 102.288 149.801 102.602C149.22 102.616 148.646 102.472 148.14 102.186C147.269 101.792 146.677 101.295 146.731 101.22Z" fill="#263238"/>
<path id="Vector_134" d="M146.37 101.968C146.917 102.127 147.441 102.356 147.929 102.649C148.464 102.825 148.972 103.072 149.44 103.384C148.859 103.406 148.283 103.262 147.779 102.969C146.915 102.547 146.323 102.05 146.37 101.968Z" fill="#263238"/>
<path id="Vector_135" d="M146.009 102.724C146.555 102.867 147.079 103.082 147.568 103.364C148.103 103.546 148.613 103.796 149.086 104.106C147.931 104.032 146.84 103.55 146.009 102.745V102.724Z" fill="#263238"/>
<path id="Vector_136" d="M145.642 103.479C146.188 103.62 146.713 103.835 147.2 104.119C147.735 104.298 148.243 104.547 148.712 104.861C147.56 104.781 146.474 104.3 145.642 103.5V103.479Z" fill="#263238"/>
<path id="Vector_137" d="M145.294 104.228C145.842 104.386 146.366 104.614 146.853 104.909C147.388 105.085 147.896 105.332 148.364 105.644C147.785 105.666 147.211 105.522 146.71 105.229C145.839 104.807 145.24 104.31 145.294 104.228Z" fill="#263238"/>
<path id="Vector_138" d="M80.862 154.09L74.3965 157.023L75.7237 159.949L82.1892 157.016L80.862 154.09Z" fill="#E0E0E0"/>
<path id="Vector_139" d="M82.1807 157.016C82.0245 156.759 81.8836 156.493 81.7587 156.22C81.5069 155.723 81.1529 155.015 80.7377 154.177L80.9078 154.239C79.247 155.022 76.9735 156.077 74.4685 157.213C74.3868 157.424 74.5706 156.927 74.557 156.982V157.03L74.5978 157.125L74.6863 157.315L74.8565 157.697C74.9722 157.949 75.0811 158.194 75.1968 158.439L75.8299 159.861L75.6053 159.78C77.4636 158.949 79.07 158.262 80.234 157.738L81.5954 157.166C81.7665 157.085 81.9441 157.019 82.1263 156.968C81.9938 157.067 81.8498 157.149 81.6975 157.213L80.3973 157.853C79.2674 158.398 77.6746 159.181 75.7346 160.059L75.578 160.127L75.51 159.97C75.299 159.521 75.0879 159.044 74.8293 158.561C74.7136 158.316 74.6046 158.064 74.4889 157.812L74.3188 157.438L74.2303 157.241L74.1826 157.145V157.098V157.064L74.2711 156.832C76.7829 155.689 79.07 154.674 80.7581 153.946L80.8738 153.892L80.9283 154.007C81.3299 154.947 81.643 155.702 81.8472 156.213C81.9872 156.468 82.099 156.737 82.1807 157.016Z" fill="#263238"/>
<path id="Vector_140" d="M72.4063 159.813C72.5666 160.168 72.7951 160.487 73.079 160.754C73.3628 161.02 73.6964 161.227 74.0605 161.365C74.4246 161.502 74.8122 161.566 75.2012 161.553C75.5901 161.54 75.9727 161.451 76.3271 161.29L73.8766 155.893C73.522 156.053 73.2025 156.281 72.9366 156.565C72.6706 156.849 72.4634 157.183 72.3268 157.547C72.1902 157.912 72.1268 158.299 72.1405 158.688C72.1541 159.077 72.2445 159.46 72.4063 159.813Z" fill="#E0E0E0"/>
<path id="Vector_141" d="M72.406 159.813C72.406 159.813 72.3243 159.718 72.229 159.514C72.1108 159.205 72.0486 158.878 72.0452 158.547C72.0336 158.035 72.1556 157.528 72.3991 157.077C72.7107 156.484 73.2047 156.007 73.8082 155.716L73.9579 155.647L74.026 155.797C74.414 156.634 74.8292 157.54 75.2649 158.52C75.7005 159.5 76.0953 160.378 76.4765 161.243L76.5446 161.393L76.3948 161.461C75.7864 161.727 75.1082 161.789 74.4616 161.638C73.9555 161.535 73.4857 161.3 73.1003 160.957C72.8548 160.74 72.6517 160.479 72.5013 160.188C72.3991 159.977 72.3651 159.861 72.3855 159.854C72.626 160.204 72.9071 160.524 73.2228 160.807C73.6416 161.142 74.1452 161.355 74.6776 161.421C75.2099 161.487 75.7502 161.404 76.2382 161.181L76.1566 161.399L74.9177 158.677C74.4957 157.724 74.0873 156.818 73.7061 155.954L73.9239 156.035C73.435 156.255 73.0169 156.606 72.7164 157.05C72.4158 157.493 72.2447 158.012 72.2222 158.547C72.2363 158.975 72.2979 159.399 72.406 159.813Z" fill="#263238"/>
<path id="Vector_142" d="M73.4475 158.479C73.1573 158.68 72.9298 158.958 72.7913 159.282C72.6527 159.606 72.6088 159.963 72.6647 160.311" fill="#E0E0E0"/>
<path id="Vector_143" d="M72.6647 160.311C72.5763 160.351 72.3652 159.814 72.6239 159.215C72.8826 158.616 73.4135 158.391 73.4476 158.48C73.4816 158.568 73.1549 158.861 72.9506 159.351C72.7464 159.841 72.7669 160.29 72.6647 160.311Z" fill="#263238"/>
<path id="Vector_144" d="M76.7492 159.636C76.4232 159.178 76.1621 158.676 75.9732 158.146C75.6789 157.663 75.45 157.144 75.2925 156.601C76.1248 157.406 76.6415 158.483 76.7492 159.636Z" fill="#263238"/>
<path id="Vector_145" d="M77.5045 159.296C77.1821 158.833 76.9213 158.329 76.7285 157.799C76.4376 157.317 76.2089 156.8 76.0479 156.26C76.1227 156.199 76.6333 156.784 77.0417 157.622C77.3543 158.123 77.5151 158.705 77.5045 159.296Z" fill="#263238"/>
<path id="Vector_146" d="M78.2536 158.949C77.929 158.489 77.668 157.988 77.4776 157.458C77.1833 156.976 76.9544 156.456 76.7969 155.913C77.6292 156.719 78.1459 157.796 78.2536 158.949Z" fill="#263238"/>
<path id="Vector_147" d="M79.0226 158.609C78.7019 158.144 78.4412 157.641 78.2466 157.111C77.9536 156.628 77.7248 156.108 77.5659 155.566C78.0137 155.922 78.357 156.392 78.5597 156.927C78.8726 157.432 79.0333 158.015 79.0226 158.609Z" fill="#263238"/>
<path id="Vector_148" d="M79.7848 158.261C79.4594 157.8 79.1983 157.296 79.0088 156.764C78.7152 156.283 78.4863 155.766 78.3281 155.226C79.1604 156.031 79.6771 157.108 79.7848 158.261Z" fill="#263238"/>
<path id="Vector_149" d="M80.5407 157.914C80.2174 157.454 79.9565 156.953 79.7647 156.424C79.4717 155.94 79.2429 155.421 79.084 154.878C79.5317 155.235 79.8751 155.705 80.0778 156.24C80.3897 156.742 80.5504 157.323 80.5407 157.914Z" fill="#263238"/>
<path id="Vector_150" d="M81.3029 157.574C80.7555 156.593 80.269 155.579 79.8462 154.538C79.9211 154.477 80.4384 155.062 80.8468 155.899C81.1532 156.404 81.3113 156.984 81.3029 157.574Z" fill="#263238"/>
<path id="Vector_151" d="M94.9438 74.0601C94.9438 74.0601 103.187 82.2284 105.243 87.2859C107.196 92.1256 108.49 96.6318 108.49 96.6318C108.49 96.6318 110.613 92.9152 113.003 96.6318C115.392 100.348 126.685 145.485 128.543 162.475H135.738C135.738 162.475 132.389 134.07 130.796 130.884C129.203 127.699 127.869 126.637 127.869 126.637C127.869 126.637 126.011 114.684 124.683 112.825C123.919 111.734 122.922 110.828 121.763 110.171C121.763 110.171 119.374 97.1627 115.923 94.5148C112.472 91.867 109.797 93.1875 109.797 93.1875C109.797 93.1875 107.618 79.2469 94.9438 74.0601Z" fill="#FF6915"/>
<path id="Vector_152" d="M162.435 134.383C160.812 134.817 159.221 135.358 157.67 136.003C156.163 136.753 154.706 137.599 153.307 138.535C153.617 138.142 153.99 137.802 154.409 137.528C156.345 136.064 158.582 135.048 160.958 134.553C161.439 134.422 161.937 134.364 162.435 134.383Z" fill="#455A64"/>
<path id="Vector_153" d="M162.155 132.926C160.517 133.553 158.913 134.267 157.35 135.064C154.811 136.466 153.075 138.093 153 138.004C153.309 137.585 153.676 137.212 154.089 136.895C155.046 136.082 156.081 135.366 157.179 134.757C158.276 134.146 159.432 133.648 160.631 133.273C161.119 133.084 161.633 132.967 162.155 132.926Z" fill="#455A64"/>
<path id="Vector_154" d="M160.76 136.425C160.76 136.534 159.262 136.554 157.499 137.065C155.736 137.576 154.443 138.324 154.389 138.236C156.207 136.847 158.484 136.2 160.76 136.425Z" fill="#455A64"/>
<path id="Vector_155" d="M144.88 162.407C143.675 152.877 146.806 141.7 154.409 136.35L156.22 137.827C156.22 137.827 146.752 143.463 147.446 162.475" fill="#263238"/>
<path id="Vector_156" d="M105.76 148.677C104.497 149.112 103.273 149.656 102.105 150.304C101.001 151.057 99.9627 151.902 99.001 152.829C99.7566 151.686 100.753 150.722 101.921 150.005C103.088 149.288 104.399 148.834 105.76 148.677Z" fill="#455A64"/>
<path id="Vector_157" d="M105.569 147.833C104.363 148.38 103.127 148.857 101.866 149.263C100.646 149.788 99.3956 150.243 98.1226 150.624C99.2574 149.922 100.473 149.359 101.744 148.95C102.968 148.421 104.253 148.046 105.569 147.833Z" fill="#455A64"/>
<path id="Vector_158" d="M126.542 164.755L123.247 163.898C123.611 162.53 123.569 161.086 123.128 159.741C122.687 158.396 121.866 157.208 120.762 156.322C120.619 157.37 120.212 158.365 119.58 159.213C118.948 160.062 118.111 160.737 117.148 161.175C116.419 161.462 115.635 161.585 114.853 161.535C114.071 161.486 113.309 161.265 112.621 160.889C111.997 160.571 111.451 160.117 111.023 159.562C110.596 159.006 110.298 158.362 110.151 157.676C109.989 156.609 110.154 155.517 110.624 154.545C111.094 153.574 111.848 152.767 112.785 152.231C113.551 151.787 114.398 151.5 115.276 151.387C115.199 151.316 115.117 151.25 115.031 151.189C113.547 150.116 111.773 149.515 109.942 149.465C108.11 149.415 106.307 149.919 104.766 150.91L102.847 148.099C104.977 146.699 107.485 145.985 110.033 146.053C112.582 146.121 115.048 146.968 117.1 148.48C118.348 149.421 119.361 150.637 120.061 152.033C122.512 152.998 124.525 154.827 125.719 157.175C126.913 159.523 127.206 162.227 126.542 164.776V164.755ZM116.372 154.688C115.716 154.668 115.067 154.826 114.493 155.144C114.161 155.326 113.887 155.598 113.704 155.93C113.521 156.261 113.436 156.638 113.459 157.016C113.514 157.206 113.609 157.382 113.737 157.534C113.864 157.685 114.022 157.808 114.201 157.894C114.445 158.028 114.715 158.11 114.993 158.133C115.271 158.157 115.55 158.122 115.814 158.03C116.364 157.734 116.809 157.276 117.092 156.719C117.374 156.161 117.479 155.531 117.393 154.913V154.776C117.056 154.717 116.714 154.687 116.372 154.688Z" fill="#263238"/>
<path id="Vector_159" d="M98.9053 101.546C99.2242 101.678 99.5297 101.839 99.8174 102.03C100.396 102.356 101.179 102.874 102.186 103.548C103.329 104.349 104.431 105.208 105.488 106.121C108.071 108.361 110.373 110.908 112.342 113.704C113.146 114.841 113.889 116.021 114.568 117.236C115.147 118.278 115.582 119.135 115.848 119.748C116.008 120.052 116.138 120.371 116.236 120.701C116.038 120.421 115.867 120.122 115.725 119.809C115.419 119.217 114.956 118.38 114.364 117.366C113.772 116.351 113.002 115.16 112.09 113.887C110.105 111.147 107.822 108.636 105.283 106.4C104.119 105.338 102.996 104.433 102.077 103.752C101.158 103.071 100.335 102.506 99.7766 102.145C99.4687 101.972 99.1771 101.772 98.9053 101.546Z" fill="#FF6915"/>
<path id="Vector_160" d="M87.3884 177.389H87.967V211.771H87.3884C85.7637 211.771 84.2054 211.125 83.0565 209.977C81.9077 208.828 81.2622 207.269 81.2622 205.645V183.488C81.2694 181.868 81.918 180.317 83.0661 179.174C84.2143 178.031 85.7684 177.389 87.3884 177.389Z" fill="#263238"/>
<path id="Vector_161" d="M186.395 177.389H187.035C188.638 177.389 190.175 178.026 191.309 179.16C192.443 180.293 193.079 181.831 193.079 183.434V205.733C193.079 207.336 192.443 208.874 191.309 210.007C190.175 211.141 188.638 211.778 187.035 211.778H186.395V177.389Z" fill="#263238"/>
<path id="Vector_162" d="M178.288 170.677H95.8218C90.5136 170.677 86.2104 174.98 86.2104 180.289V235.935C86.2104 241.243 90.5136 245.547 95.8218 245.547H178.288C183.596 245.547 187.899 241.243 187.899 235.935V180.289C187.899 174.98 183.596 170.677 178.288 170.677Z" fill="#FF6915"/>
<path id="Vector_163" d="M149.992 178.628C143.812 178.628 137.885 181.083 133.516 185.452C129.146 189.822 126.691 195.748 126.691 201.928H173.298C173.298 198.868 172.695 195.837 171.524 193.01C170.353 190.183 168.636 187.614 166.472 185.45C164.307 183.286 161.738 181.57 158.91 180.4C156.082 179.229 153.052 178.627 149.992 178.628Z" fill="white"/>
<path id="Vector_164" d="M168.785 200.805C169.765 200.805 170.65 200.805 171.29 200.805C171.639 200.788 171.988 200.811 172.332 200.873C171.99 200.931 171.643 200.956 171.297 200.948C170.616 200.948 169.765 200.948 168.785 200.948H166.28H165.518C165.425 200.959 165.331 200.959 165.239 200.948C165.331 200.933 165.425 200.933 165.518 200.948L166.28 200.914L168.785 200.805Z" fill="#E0E0E0"/>
<path id="Vector_165" d="M167.138 193.76C168.908 192.916 170.378 192.324 170.426 192.398C170.473 192.473 169.064 193.243 167.281 194.039C166.221 194.574 165.122 195.03 163.993 195.4C164.999 194.776 166.05 194.228 167.138 193.76Z" fill="#E0E0E0"/>
<path id="Vector_166" d="M162.768 188.001C164.061 186.531 165.177 185.401 165.266 185.476C165.354 185.551 164.347 186.789 163.026 188.232C162.26 189.135 161.424 189.977 160.528 190.751C161.205 189.78 161.954 188.861 162.768 188.001Z" fill="#E0E0E0"/>
<path id="Vector_167" d="M156.533 184.319C156.873 183.182 157.341 182.089 157.928 181.058C158.037 181.099 157.561 182.61 156.86 184.462C156.473 185.581 156.004 186.671 155.458 187.722C155.728 186.562 156.088 185.424 156.533 184.319Z" fill="#E0E0E0"/>
<path id="Vector_168" d="M149.393 183.107C149.393 181.147 149.447 179.561 149.563 179.561C149.678 179.561 149.753 181.147 149.74 183.107C149.772 184.292 149.713 185.478 149.563 186.653C149.413 185.478 149.356 184.292 149.393 183.107Z" fill="#E0E0E0"/>
<path id="Vector_169" d="M142.272 184.441C141.592 182.61 141.088 181.099 141.197 181.037C141.306 180.976 141.932 182.453 142.558 184.298C143.008 185.402 143.368 186.54 143.634 187.701C143.1 186.65 142.645 185.56 142.272 184.441Z" fill="#E0E0E0"/>
<path id="Vector_170" d="M136.112 188.233C134.792 186.79 133.784 185.558 133.873 185.476C133.961 185.394 135.077 186.531 136.371 188.001C137.184 188.852 137.932 189.762 138.61 190.724C137.715 189.958 136.88 189.126 136.112 188.233Z" fill="#E0E0E0"/>
<path id="Vector_171" d="M131.844 194.079C130.054 193.276 128.645 192.541 128.693 192.432C128.74 192.323 130.217 192.922 131.987 193.794C133.075 194.262 134.126 194.81 135.132 195.434C134.004 195.065 132.905 194.612 131.844 194.079Z" fill="#E0E0E0"/>
<path id="Vector_172" d="M130.36 200.975C129.38 200.975 128.495 200.975 127.849 200.975C127.502 200.984 127.156 200.959 126.814 200.9C127.157 200.838 127.507 200.815 127.855 200.832C128.495 200.832 129.38 200.832 130.36 200.832L132.865 200.873L133.628 200.907C133.718 200.891 133.81 200.891 133.9 200.907C133.81 200.918 133.718 200.918 133.628 200.907H132.865L130.36 200.975Z" fill="#E0E0E0"/>
<path id="Vector_173" d="M111.138 182.712C111.139 183.325 110.958 183.924 110.619 184.434C110.279 184.945 109.796 185.343 109.23 185.578C108.665 185.814 108.042 185.876 107.44 185.757C106.839 185.638 106.287 185.344 105.853 184.911C105.419 184.478 105.123 183.926 105.003 183.325C104.883 182.724 104.944 182.101 105.178 181.535C105.413 180.969 105.81 180.485 106.319 180.144C106.829 179.803 107.428 179.622 108.04 179.622C108.861 179.622 109.647 179.947 110.228 180.526C110.809 181.106 111.136 181.892 111.138 182.712Z" fill="white"/>
<path id="Vector_174" d="M111.138 192.038C111.139 192.65 110.958 193.25 110.619 193.76C110.279 194.27 109.796 194.668 109.23 194.904C108.665 195.139 108.042 195.202 107.44 195.083C106.839 194.964 106.287 194.67 105.853 194.237C105.419 193.804 105.123 193.252 105.003 192.651C104.883 192.05 104.944 191.427 105.178 190.861C105.413 190.294 105.81 189.81 106.319 189.47C106.829 189.129 107.428 188.947 108.04 188.947C108.861 188.947 109.647 189.273 110.228 189.852C110.809 190.431 111.136 191.217 111.138 192.038Z" fill="#455A64"/>
<path id="Vector_175" d="M169.759 239.087C169.759 239.087 169.759 238.889 169.759 238.508C169.759 238.127 169.759 237.562 169.759 236.84C169.759 235.363 169.759 233.212 169.725 230.456C169.725 224.922 169.684 216.944 169.657 207.108L169.786 207.237L106.366 207.285L106.543 207.108C106.543 218.387 106.543 229.203 106.543 239.1L106.373 238.937L151.925 239.012L165.062 239.059H168.574H169.486H169.8H169.507H168.615H165.137L152.033 239.107L106.373 239.189H106.162V239.019C106.162 229.135 106.162 218.319 106.162 207.026V206.849H106.345L169.765 206.897H169.902V207.026C169.868 216.896 169.847 224.901 169.827 230.449C169.827 233.171 169.827 235.343 169.827 236.806C169.827 237.521 169.827 238.072 169.827 238.454C169.827 238.835 169.759 239.087 169.759 239.087Z" fill="#263238"/>
<path id="Vector_176" d="M96.7002 245.397H177.41V245.799C177.41 246.355 177.3 246.907 177.087 247.421C176.874 247.936 176.562 248.403 176.168 248.797C175.774 249.191 175.307 249.503 174.792 249.716C174.277 249.93 173.726 250.039 173.169 250.039H100.948C99.823 250.039 98.7444 249.593 97.9491 248.797C97.1538 248.002 96.707 246.923 96.707 245.799V245.397H96.7002Z" fill="#263238"/>
<g id="Group_8" opacity="0.3">
<path id="Vector_177" opacity="0.3" d="M162.979 211.594C162.928 212.033 163.031 212.477 163.27 212.85C163.51 213.222 163.871 213.5 164.293 213.636C164.718 213.752 165.168 213.734 165.582 213.583C165.995 213.431 166.351 213.155 166.6 212.792C166.832 212.416 166.955 211.984 166.955 211.543C166.955 211.101 166.832 210.669 166.6 210.293C166.626 210.874 166.437 211.443 166.07 211.893C165.883 212.112 165.644 212.282 165.376 212.386C165.107 212.491 164.817 212.527 164.531 212.492C164.246 212.452 163.981 212.322 163.774 212.121C163.568 211.921 163.43 211.66 163.381 211.376" fill="black"/>
</g>
<path id="Vector_178" d="M166.614 210.838C166.615 211.212 166.506 211.577 166.299 211.888C166.092 212.199 165.798 212.442 165.453 212.586C165.108 212.729 164.729 212.767 164.362 212.695C163.996 212.622 163.659 212.442 163.395 212.178C163.131 211.914 162.951 211.578 162.879 211.211C162.806 210.845 162.844 210.465 162.988 210.12C163.131 209.775 163.374 209.481 163.685 209.274C163.996 209.068 164.362 208.958 164.735 208.959C165.233 208.959 165.711 209.157 166.064 209.51C166.416 209.862 166.614 210.34 166.614 210.838Z" fill="#E0E0E0"/>
<path id="Vector_179" d="M166.614 210.838C166.564 210.693 166.523 210.546 166.492 210.396C166.371 210.014 166.133 209.68 165.811 209.443C165.575 209.275 165.301 209.167 165.014 209.129C164.727 209.091 164.435 209.124 164.164 209.225C163.835 209.348 163.551 209.568 163.351 209.856C163.151 210.145 163.044 210.487 163.044 210.838C163.044 211.189 163.151 211.532 163.351 211.82C163.551 212.108 163.835 212.328 164.164 212.451C164.435 212.552 164.727 212.585 165.014 212.547C165.301 212.509 165.575 212.401 165.811 212.233C166.133 211.996 166.371 211.662 166.492 211.28C166.524 211.131 166.565 210.983 166.614 210.838C166.614 210.838 166.675 211.008 166.614 211.315C166.532 211.757 166.289 212.155 165.933 212.431C165.669 212.644 165.354 212.786 165.02 212.844C164.685 212.901 164.341 212.871 164.021 212.758C163.626 212.615 163.286 212.354 163.045 212.01C162.804 211.667 162.675 211.257 162.675 210.838C162.675 210.419 162.804 210.009 163.045 209.666C163.286 209.323 163.626 209.062 164.021 208.918C164.341 208.805 164.685 208.775 165.02 208.833C165.354 208.89 165.669 209.032 165.933 209.245C166.289 209.521 166.532 209.919 166.614 210.362C166.675 210.668 166.635 210.838 166.614 210.838Z" fill="#263238"/>
<path id="Vector_180" d="M165.6 210.035C165.634 210.13 165.191 210.362 164.776 210.797C164.361 211.233 164.143 211.675 164.048 211.641C163.953 211.607 164.048 211.049 164.524 210.546C165.001 210.042 165.579 209.94 165.6 210.035Z" fill="#263238"/>
<path id="Vector_181" d="M165.6 211.424C165.518 211.478 165.205 211.138 164.742 210.831C164.279 210.525 163.844 210.355 163.864 210.253C163.884 210.151 164.415 210.178 164.939 210.539C165.464 210.899 165.681 211.383 165.6 211.424Z" fill="#263238"/>
<g id="Group_9" opacity="0.3">
<path id="Vector_182" opacity="0.3" d="M163.857 234.873C163.809 235.314 163.914 235.757 164.154 236.129C164.395 236.501 164.756 236.779 165.178 236.915C165.602 237.032 166.053 237.014 166.466 236.862C166.88 236.711 167.236 236.435 167.485 236.071C167.721 235.7 167.849 235.27 167.855 234.831C167.861 234.391 167.745 233.958 167.519 233.58C167.544 234.159 167.352 234.727 166.982 235.173C166.796 235.392 166.558 235.561 166.291 235.665C166.024 235.77 165.735 235.806 165.45 235.772C165.165 235.733 164.899 235.605 164.691 235.406C164.483 235.206 164.343 234.946 164.293 234.662" fill="black"/>
</g>
<path id="Vector_183" d="M165.62 235.99C166.658 235.99 167.499 235.149 167.499 234.111C167.499 233.074 166.658 232.232 165.62 232.232C164.582 232.232 163.741 233.074 163.741 234.111C163.741 235.149 164.582 235.99 165.62 235.99Z" fill="#E0E0E0"/>
<path id="Vector_184" d="M167.499 234.111C167.465 234.111 167.458 233.948 167.37 233.669C167.251 233.286 167.012 232.952 166.689 232.716C166.453 232.548 166.179 232.441 165.892 232.403C165.605 232.365 165.313 232.398 165.042 232.498C164.813 232.587 164.606 232.725 164.435 232.901C164.263 233.077 164.132 233.287 164.048 233.518C163.964 233.749 163.931 233.995 163.949 234.239C163.968 234.484 164.039 234.722 164.157 234.938C164.275 235.153 164.437 235.341 164.633 235.488C164.829 235.636 165.055 235.74 165.294 235.794C165.534 235.848 165.782 235.85 166.023 235.801C166.263 235.751 166.49 235.651 166.689 235.506C167.014 235.272 167.253 234.937 167.37 234.553C167.458 234.281 167.465 234.111 167.499 234.111C167.533 234.111 167.56 234.281 167.499 234.588C167.416 235.032 167.174 235.431 166.818 235.711C166.553 235.922 166.238 236.063 165.903 236.119C165.569 236.175 165.225 236.144 164.905 236.031C164.511 235.887 164.171 235.627 163.93 235.283C163.689 234.94 163.56 234.53 163.56 234.111C163.56 233.692 163.689 233.282 163.93 232.939C164.171 232.596 164.511 232.335 164.905 232.191C165.226 232.083 165.569 232.056 165.903 232.113C166.237 232.17 166.551 232.309 166.818 232.518C167.174 232.794 167.416 233.192 167.499 233.635C167.56 233.948 167.519 234.118 167.499 234.111Z" fill="#263238"/>
<path id="Vector_185" d="M166.484 233.308C166.518 233.403 166.069 233.634 165.661 234.07C165.252 234.506 165.028 234.948 164.926 234.921C164.824 234.894 164.926 234.322 165.402 233.825C165.879 233.328 166.464 233.219 166.484 233.308Z" fill="#263238"/>
<path id="Vector_186" d="M166.485 234.697C166.396 234.758 166.083 234.411 165.62 234.104C165.157 233.798 164.728 233.628 164.749 233.526C164.769 233.424 165.293 233.451 165.824 233.812C166.355 234.172 166.566 234.656 166.485 234.697Z" fill="#263238"/>
<g id="Group_10" opacity="0.3">
<path id="Vector_187" opacity="0.3" d="M109.143 211.567C109.095 212.007 109.2 212.451 109.441 212.822C109.681 213.194 110.042 213.472 110.464 213.609C110.889 213.724 111.34 213.704 111.753 213.551C112.167 213.399 112.523 213.122 112.771 212.758C113.002 212.383 113.124 211.952 113.124 211.512C113.124 211.072 113.002 210.641 112.771 210.267C112.797 210.848 112.605 211.418 112.234 211.866C112.048 212.085 111.811 212.254 111.543 212.359C111.276 212.463 110.987 212.5 110.702 212.465C110.416 212.426 110.149 212.297 109.941 212.096C109.733 211.895 109.594 211.634 109.545 211.349" fill="black"/>
</g>
<path id="Vector_188" d="M110.899 212.69C111.937 212.69 112.778 211.848 112.778 210.811C112.778 209.773 111.937 208.932 110.899 208.932C109.862 208.932 109.021 209.773 109.021 210.811C109.021 211.848 109.862 212.69 110.899 212.69Z" fill="#E0E0E0"/>
<path id="Vector_189" d="M112.785 210.811C112.785 210.811 112.744 210.641 112.656 210.368C112.54 209.984 112.301 209.649 111.975 209.415C111.74 209.248 111.468 209.14 111.182 209.102C110.896 209.064 110.605 209.097 110.335 209.198C110.006 209.32 109.722 209.541 109.522 209.829C109.322 210.117 109.215 210.46 109.215 210.811C109.215 211.162 109.322 211.504 109.522 211.793C109.722 212.081 110.006 212.301 110.335 212.424C110.606 212.524 110.898 212.557 111.185 212.519C111.472 212.481 111.746 212.373 111.982 212.206C112.307 211.971 112.546 211.637 112.663 211.253C112.751 210.981 112.758 210.811 112.792 210.811C112.839 210.966 112.839 211.132 112.792 211.287C112.707 211.729 112.465 212.125 112.111 212.404C111.847 212.616 111.532 212.758 111.197 212.815C110.862 212.872 110.519 212.843 110.198 212.73C109.804 212.587 109.464 212.326 109.223 211.983C108.982 211.639 108.853 211.23 108.853 210.811C108.853 210.391 108.982 209.982 109.223 209.639C109.464 209.295 109.804 209.034 110.198 208.891C110.519 208.778 110.862 208.749 111.197 208.806C111.532 208.863 111.847 209.005 112.111 209.218C112.465 209.496 112.707 209.892 112.792 210.334C112.837 210.49 112.834 210.656 112.785 210.811Z" fill="#263238"/>
<path id="Vector_190" d="M111.771 210.008C111.771 210.103 111.355 210.334 110.947 210.77C110.538 211.206 110.314 211.648 110.212 211.614C110.11 211.58 110.212 211.015 110.688 210.518C111.165 210.021 111.75 209.94 111.771 210.008Z" fill="#263238"/>
<path id="Vector_191" d="M111.771 211.396C111.682 211.451 111.369 211.111 110.906 210.804C110.443 210.498 110.014 210.328 110.035 210.226C110.055 210.124 110.579 210.151 111.11 210.505C111.641 210.859 111.852 211.349 111.771 211.396Z" fill="#263238"/>
<g id="Group_11" opacity="0.3">
<path id="Vector_192" opacity="0.3" d="M108.748 234.642C108.696 235.082 108.798 235.527 109.038 235.899C109.278 236.272 109.64 236.549 110.062 236.684C110.487 236.801 110.937 236.782 111.351 236.631C111.764 236.48 112.121 236.203 112.37 235.84C112.602 235.466 112.725 235.034 112.725 234.594C112.725 234.154 112.602 233.723 112.37 233.349C112.394 233.927 112.205 234.493 111.839 234.941C111.652 235.161 111.414 235.332 111.146 235.438C110.877 235.543 110.587 235.581 110.3 235.547C110.015 235.507 109.75 235.377 109.543 235.176C109.337 234.976 109.199 234.715 109.15 234.431" fill="black"/>
</g>
<path id="Vector_193" d="M110.505 235.758C111.542 235.758 112.383 234.917 112.383 233.88C112.383 232.842 111.542 232.001 110.505 232.001C109.467 232.001 108.626 232.842 108.626 233.88C108.626 234.917 109.467 235.758 110.505 235.758Z" fill="#E0E0E0"/>
<path id="Vector_194" d="M112.383 233.88C112.383 233.88 112.383 233.716 112.261 233.437C112.137 233.057 111.899 232.725 111.58 232.484C111.344 232.316 111.071 232.209 110.783 232.171C110.496 232.133 110.204 232.166 109.933 232.266C109.704 232.356 109.497 232.493 109.326 232.669C109.155 232.845 109.023 233.055 108.939 233.286C108.855 233.517 108.822 233.763 108.841 234.008C108.859 234.253 108.93 234.491 109.048 234.706C109.166 234.921 109.328 235.109 109.524 235.257C109.721 235.405 109.946 235.509 110.185 235.563C110.425 235.617 110.673 235.619 110.914 235.569C111.154 235.519 111.381 235.419 111.58 235.275C111.902 235.037 112.14 234.704 112.261 234.322C112.293 234.172 112.334 234.025 112.383 233.88C112.383 233.88 112.445 234.05 112.383 234.356C112.301 234.801 112.059 235.201 111.703 235.479C111.436 235.688 111.121 235.827 110.788 235.884C110.454 235.941 110.111 235.914 109.79 235.806C109.393 235.664 109.05 235.403 108.808 235.059C108.565 234.715 108.435 234.304 108.435 233.883C108.435 233.462 108.565 233.051 108.808 232.707C109.05 232.363 109.393 232.102 109.79 231.96C110.111 231.852 110.454 231.825 110.788 231.882C111.121 231.939 111.436 232.078 111.703 232.287C112.059 232.565 112.301 232.965 112.383 233.41C112.445 233.716 112.404 233.886 112.383 233.88Z" fill="#263238"/>
<path id="Vector_195" d="M111.369 233.083C111.369 233.179 110.96 233.41 110.545 233.846C110.13 234.281 109.912 234.724 109.817 234.697C109.722 234.669 109.817 234.098 110.293 233.601C110.77 233.104 111.348 232.988 111.369 233.083Z" fill="#263238"/>
<path id="Vector_196" d="M111.369 234.445C111.287 234.499 110.974 234.152 110.511 233.846C110.048 233.539 109.613 233.369 109.633 233.267C109.653 233.165 110.184 233.192 110.708 233.553C111.233 233.914 111.45 234.445 111.369 234.445Z" fill="#263238"/>
<g id="Group_12" opacity="0.3">
<path id="Vector_197" opacity="0.3" d="M106.332 239.264C113.697 240.863 122.301 240.925 130.258 240.537C134.084 240.346 138.284 240.108 141.347 242.415C142.028 242.919 142.804 243.579 143.593 243.287C144.737 242.858 144.778 240.761 146.003 240.72C146.615 240.72 147.085 241.285 147.282 241.864C147.408 242.463 147.595 243.047 147.841 243.607C148.154 244.138 148.896 244.492 149.386 244.117C150.162 243.525 149.263 242.252 149.556 241.319C149.849 240.387 151.237 240.278 152.177 240.639C153.116 241 154.028 241.687 155.029 241.537C155.729 241.337 156.384 241.002 156.955 240.55C158.745 239.454 160.958 239.393 163.081 239.352C165.294 239.318 167.574 239.107 169.786 239.066L106.332 239.264Z" fill="black"/>
</g>
<path id="Vector_198" d="M157.057 215.242C156.947 215.297 156.83 215.338 156.71 215.365C156.374 215.454 156.044 215.566 155.723 215.698C154.54 216.18 153.424 216.812 152.401 217.577C151.074 218.503 149.61 219.782 147.752 220.912C146.779 221.517 145.715 221.961 144.6 222.226C143.401 222.441 142.183 222.532 140.966 222.498C138.481 222.498 136.31 223.506 134.431 224.54C132.552 225.575 130.83 226.474 129.489 227.379C128.42 228.079 127.43 228.891 126.535 229.802C125.902 230.483 125.609 230.857 125.582 230.837C125.555 230.816 125.636 230.728 125.772 230.531C125.984 230.243 126.211 229.968 126.453 229.707C127.32 228.75 128.298 227.9 129.367 227.175C130.955 226.111 132.6 225.134 134.295 224.248C135.283 223.695 136.311 223.217 137.371 222.818C138.525 222.395 139.744 222.176 140.972 222.172C142.169 222.205 143.366 222.119 144.546 221.913C145.626 221.656 146.659 221.234 147.609 220.66C149.433 219.565 150.924 218.305 152.279 217.4C153.325 216.645 154.47 216.038 155.682 215.596C156.011 215.476 156.351 215.384 156.696 215.324C156.812 215.28 156.934 215.253 157.057 215.242Z" fill="#263238"/>
<path id="Vector_199" d="M140.918 220.633C140.25 220.606 139.588 220.503 138.944 220.327C137.371 219.976 135.83 219.498 134.335 218.898C132.84 218.301 131.396 217.582 130.02 216.747C129.429 216.43 128.879 216.043 128.379 215.596C128.984 215.873 129.573 216.184 130.142 216.529C132.942 218.058 135.912 219.253 138.991 220.089C139.645 220.225 140.289 220.407 140.918 220.633Z" fill="#263238"/>
<path id="Vector_200" d="M151.155 198.416C151.679 198.137 166.975 193.215 166.975 193.215L152.353 201.384L151.155 198.416Z" fill="#FF6915"/>
<path id="Vector_201" d="M149.562 196.762C148.883 196.762 148.21 196.896 147.583 197.155C146.955 197.415 146.385 197.797 145.904 198.277C145.424 198.757 145.043 199.328 144.783 199.955C144.523 200.583 144.389 201.256 144.389 201.935H154.736C154.736 201.256 154.602 200.583 154.342 199.955C154.082 199.328 153.701 198.757 153.22 198.277C152.74 197.797 152.17 197.415 151.542 197.155C150.914 196.896 150.242 196.762 149.562 196.762Z" fill="#263238"/>
<path id="Vector_202" d="M97.551 245.397C97.4489 245.397 97.374 228.774 97.374 208.272C97.374 187.769 97.4489 171.14 97.551 171.14C97.6531 171.14 97.728 187.763 97.728 208.272C97.728 228.781 97.6463 245.397 97.551 245.397Z" fill="#263238"/>
<path id="Vector_203" d="M178.451 245.397C178.349 245.397 178.274 228.774 178.274 208.272C178.274 187.769 178.349 171.14 178.451 171.14C178.554 171.14 178.628 187.763 178.628 208.272C178.628 228.781 178.547 245.397 178.451 245.397Z" fill="#263238"/>
<path id="Vector_204" d="M94.1543 181.214C94.5942 181.214 94.9507 180.858 94.9507 180.418C94.9507 179.978 94.5942 179.622 94.1543 179.622C93.7145 179.622 93.3579 179.978 93.3579 180.418C93.3579 180.858 93.7145 181.214 94.1543 181.214Z" fill="#263238"/>
<path id="Vector_205" d="M94.1543 196.108C94.5942 196.108 94.9507 195.751 94.9507 195.312C94.9507 194.872 94.5942 194.515 94.1543 194.515C93.7145 194.515 93.3579 194.872 93.3579 195.312C93.3579 195.751 93.7145 196.108 94.1543 196.108Z" fill="#263238"/>
<path id="Vector_206" d="M94.1543 211.008C94.5942 211.008 94.9507 210.652 94.9507 210.212C94.9507 209.772 94.5942 209.416 94.1543 209.416C93.7145 209.416 93.3579 209.772 93.3579 210.212C93.3579 210.652 93.7145 211.008 94.1543 211.008Z" fill="#263238"/>
<path id="Vector_207" d="M94.1543 225.909C94.5942 225.909 94.9507 225.552 94.9507 225.112C94.9507 224.672 94.5942 224.316 94.1543 224.316C93.7145 224.316 93.3579 224.672 93.3579 225.112C93.3579 225.552 93.7145 225.909 94.1543 225.909Z" fill="#263238"/>
<path id="Vector_208" d="M94.1543 240.802C94.5942 240.802 94.9507 240.446 94.9507 240.006C94.9507 239.566 94.5942 239.209 94.1543 239.209C93.7145 239.209 93.3579 239.566 93.3579 240.006C93.3579 240.446 93.7145 240.802 94.1543 240.802Z" fill="#263238"/>
<path id="Vector_209" d="M182.61 181.214C183.05 181.214 183.407 180.858 183.407 180.418C183.407 179.978 183.05 179.622 182.61 179.622C182.171 179.622 181.814 179.978 181.814 180.418C181.814 180.858 182.171 181.214 182.61 181.214Z" fill="#263238"/>
<path id="Vector_210" d="M182.61 196.108C183.05 196.108 183.407 195.751 183.407 195.312C183.407 194.872 183.05 194.515 182.61 194.515C182.171 194.515 181.814 194.872 181.814 195.312C181.814 195.751 182.171 196.108 182.61 196.108Z" fill="#263238"/>
<path id="Vector_211" d="M182.61 211.008C183.05 211.008 183.407 210.652 183.407 210.212C183.407 209.772 183.05 209.416 182.61 209.416C182.171 209.416 181.814 209.772 181.814 210.212C181.814 210.652 182.171 211.008 182.61 211.008Z" fill="#263238"/>
<path id="Vector_212" d="M182.61 225.909C183.05 225.909 183.407 225.552 183.407 225.112C183.407 224.672 183.05 224.316 182.61 224.316C182.171 224.316 181.814 224.672 181.814 225.112C181.814 225.552 182.171 225.909 182.61 225.909Z" fill="#263238"/>
<path id="Vector_213" d="M182.61 240.802C183.05 240.802 183.407 240.446 183.407 240.006C183.407 239.566 183.05 239.209 182.61 239.209C182.171 239.209 181.814 239.566 181.814 240.006C181.814 240.446 182.171 240.802 182.61 240.802Z" fill="#263238"/>
<path id="Vector_214" d="M152.04 162.475H117.257V170.671H152.04V162.475Z" fill="#455A64"/>
<path id="Vector_215" d="M119.775 170.677C119.597 169.365 119.537 168.039 119.599 166.716C119.537 165.395 119.597 164.071 119.775 162.761C119.95 164.071 120.01 165.395 119.952 166.716C120.009 168.039 119.95 169.364 119.775 170.677Z" fill="#263238"/>
<path id="Vector_216" d="M123.336 170.677C123.161 169.364 123.102 168.039 123.159 166.716C123.102 165.395 123.161 164.071 123.336 162.761C123.515 164.071 123.574 165.395 123.513 166.716C123.574 168.039 123.515 169.365 123.336 170.677Z" fill="#263238"/>
<path id="Vector_217" d="M126.909 170.677C126.734 169.364 126.675 168.039 126.732 166.716C126.675 165.395 126.734 164.071 126.909 162.761C127.084 164.071 127.143 165.395 127.086 166.716C127.143 168.039 127.084 169.364 126.909 170.677Z" fill="#263238"/>
<path id="Vector_218" d="M130.483 170.677C130.304 169.365 130.245 168.039 130.306 166.716C130.245 165.395 130.304 164.071 130.483 162.761C130.658 164.071 130.717 165.395 130.66 166.716C130.717 168.039 130.658 169.364 130.483 170.677Z" fill="#263238"/>
<path id="Vector_219" d="M134.07 170.677C133.895 169.364 133.836 168.039 133.893 166.716C133.836 165.395 133.895 164.071 134.07 162.761C134.249 164.071 134.308 165.395 134.247 166.716C134.308 168.039 134.249 169.365 134.07 170.677Z" fill="#263238"/>
<path id="Vector_220" d="M137.623 170.677C137.449 169.364 137.389 168.039 137.446 166.716C137.389 165.395 137.448 164.071 137.623 162.761C137.798 164.071 137.858 165.395 137.8 166.716C137.857 168.039 137.798 169.364 137.623 170.677Z" fill="#263238"/>
<path id="Vector_221" d="M141.197 170.677C141.018 169.365 140.959 168.039 141.02 166.716C140.959 165.395 141.018 164.071 141.197 162.761C141.372 164.071 141.431 165.395 141.374 166.716C141.431 168.039 141.372 169.364 141.197 170.677Z" fill="#263238"/>
<path id="Vector_222" d="M144.764 170.677C144.589 169.364 144.53 168.039 144.587 166.716C144.53 165.395 144.589 164.071 144.764 162.761C144.943 164.071 145.002 165.395 144.941 166.716C145.002 168.039 144.943 169.365 144.764 170.677Z" fill="#263238"/>
<path id="Vector_223" d="M148.365 170.677C148.19 169.364 148.131 168.039 148.188 166.716C148.13 165.395 148.19 164.071 148.365 162.761C148.54 164.071 148.599 165.395 148.542 166.716C148.599 168.039 148.539 169.364 148.365 170.677Z" fill="#263238"/>
<g id="Group_13" opacity="0.3">
<path id="Vector_224" opacity="0.3" d="M193.072 188.443C193.916 192.704 194.699 196.721 195.536 200.982C194.716 201.037 193.893 201.037 193.072 200.982C193.072 196.898 193.072 192.534 193.072 188.45" fill="black"/>
</g>
<path id="Vector_225" d="M88.5658 178.662C88.6611 178.662 88.5658 191.377 88.3276 207.054C88.0893 222.73 87.8443 235.439 87.7422 235.439C87.6401 235.439 87.7422 222.73 87.9736 207.047C88.2051 191.364 88.4637 178.662 88.5658 178.662Z" fill="white"/>
<path id="Vector_226" d="M103.364 237.168C103.262 237.168 103.187 230.837 103.187 223.03C103.187 215.222 103.262 208.892 103.364 208.892C103.466 208.892 103.541 215.222 103.541 223.03C103.541 230.837 103.439 237.168 103.364 237.168Z" fill="white"/>
<path id="Vector_227" d="M170.215 172.965C170.215 173.067 154.606 173.142 135.363 173.142C116.12 173.142 100.512 173.067 100.512 172.965C100.512 172.862 116.113 172.788 135.363 172.788C154.613 172.788 170.215 172.869 170.215 172.965Z" fill="white"/>
</g>
</svg>
