<svg width="129" height="119" viewBox="0 0 129 119" fill="none" xmlns="http://www.w3.org/2000/svg">
<g id="Group">
<path id="Vector" d="M94.284 78.0339C95.0384 78.7882 96.2615 78.7882 97.0158 78.0339C97.7702 77.2795 97.7702 76.0564 97.0158 75.3021C96.2615 74.5477 95.0384 74.5477 94.284 75.3021C93.5297 76.0564 93.5297 77.2795 94.284 78.0339Z" fill="#FF8086"/>
<g id="Group_2">
<path id="Vector_2" d="M68.4227 50.833C67.6683 50.0786 67.6683 48.8556 68.4227 48.1012L94.0909 22.433C94.8453 21.6786 96.0681 21.6786 96.8227 22.433C97.5771 23.1873 97.5771 24.4104 96.8227 25.1647L71.1545 50.833C70.4001 51.5873 69.177 51.5873 68.4227 50.833Z" fill="#FF8086"/>
</g>
<g id="Group_3">
<path id="Vector_3" d="M77.9681 60.3788C77.2138 59.6245 77.2138 58.4014 77.9681 57.6471L90.397 45.2182C93.1939 42.4212 96.9129 40.8809 100.869 40.8809H107.463C108.53 40.8811 109.395 41.7457 109.395 42.8127C109.395 43.8795 108.53 44.7443 107.464 44.7443H100.869C97.9449 44.7443 95.1961 45.8829 93.1288 47.95L80.6999 60.3788C79.9455 61.1332 78.7225 61.1334 77.9681 60.3788Z" fill="#BAF39A"/>
</g>
<g id="Group_4">
<path id="Vector_4" d="M58.8768 41.2876C58.1224 40.5332 58.1224 39.3101 58.8768 38.5558L71.3057 26.1269C73.373 24.0596 74.5114 21.3108 74.5114 18.3869V11.7919C74.5114 10.7252 75.3762 9.86035 76.4429 9.86035C77.5102 9.86061 78.3748 10.7254 78.3748 11.7922V18.3872C78.3748 22.3428 76.8344 26.0618 74.0375 28.8587L61.6086 41.2876C60.8542 42.0419 59.6314 42.0419 58.8768 41.2876Z" fill="#BAF39A"/>
</g>
<g id="Group_5">
<path id="Vector_5" d="M52.9296 33.9484C52.5798 33.5986 52.3638 33.116 52.3638 32.5824C52.3638 31.7855 52.1052 31.4826 51.5386 30.8187C50.8 29.9531 49.7886 28.7679 49.7886 26.5468C49.7886 24.3255 50.8 23.1402 51.5386 22.2746C52.1055 21.6104 52.364 21.307 52.364 20.5102C52.364 19.7131 52.1055 19.41 51.5386 18.7457C50.8 17.8801 49.7886 16.6949 49.7886 14.4736C49.7886 13.4068 50.6534 12.542 51.7204 12.542C52.7872 12.542 53.6518 13.4071 53.6518 14.4736C53.6515 15.2704 53.9103 15.5738 54.4772 16.238C55.2156 17.1034 56.2272 18.2889 56.2272 20.5102C56.2269 22.7313 55.2156 23.9165 54.4772 24.7821C53.9103 25.4463 53.6515 25.7497 53.6518 26.5465C53.6518 27.3434 53.9103 27.6463 54.4772 28.3105C55.2158 29.1761 56.2272 30.3613 56.2272 32.5824C56.2272 33.6491 55.3624 34.514 54.2954 34.514C53.762 34.514 53.2788 34.2979 52.9296 33.9484Z" fill="#77B3EC"/>
</g>
<g id="Group_6">
<path id="Vector_6" d="M85.3075 66.3259C84.958 65.9764 84.7417 65.4935 84.7417 64.9602C84.7417 63.8932 85.6063 63.0283 86.6733 63.0283C88.8944 63.0283 90.0796 64.0397 90.9452 64.7783C91.6094 65.3452 91.9123 65.6038 92.7094 65.6038C93.5062 65.6038 93.8094 65.3449 94.4736 64.7783C95.3392 64.04 96.5244 63.0283 98.7455 63.0283C100.967 63.0283 102.152 64.04 103.018 64.7783C103.682 65.3452 103.985 65.6038 104.782 65.6038C105.849 65.604 106.714 66.4689 106.714 67.5351C106.714 68.6021 105.849 69.467 104.782 69.467C102.561 69.467 101.376 68.4556 100.51 67.7169C99.8457 67.1501 99.5426 66.8915 98.7455 66.8915C97.9484 66.8915 97.6452 67.1501 96.981 67.7169C96.1154 68.4556 94.9302 69.467 92.7091 69.467C90.4881 69.467 89.3026 68.4553 88.4372 67.7167C87.7733 67.1501 87.4701 66.8915 86.6735 66.8915C86.1402 66.8918 85.657 66.6754 85.3075 66.3259Z" fill="#77B3EC"/>
</g>
<g id="Group_7">
<path id="Vector_7" d="M62.6288 16.6393C61.8744 15.885 61.8744 14.6619 62.6288 13.9076C63.3831 13.1532 64.6062 13.1532 65.3605 13.9076C66.1149 14.6619 66.1149 15.885 65.3605 16.6391C64.6062 17.3937 63.3831 17.3937 62.6288 16.6393Z" fill="#FF8086"/>
<path id="Vector_8" d="M41.2215 24.9723C40.4672 24.218 40.4672 22.9949 41.2215 22.2406C41.9759 21.4862 43.199 21.4862 43.9531 22.2406C44.7074 22.9949 44.7074 24.218 43.9531 24.9723C43.199 25.7267 41.9759 25.7267 41.2215 24.9723Z" fill="#FF8086"/>
<path id="Vector_9" d="M102.617 56.6276C103.371 57.382 104.594 57.382 105.349 56.6276C106.103 55.8733 106.103 54.6502 105.349 53.8958C104.594 53.1415 103.371 53.1415 102.617 53.8958C101.863 54.6502 101.863 55.8733 102.617 56.6276Z" fill="#FF8086"/>
</g>
<path id="Vector_10" d="M2.53008 115.002C2.02632 116.098 3.15798 117.229 4.25435 116.726L81.2985 79.6391C82.9442 78.8829 83.3323 76.7183 82.0518 75.4375L41.9752 35.3609C40.6944 34.0801 38.5298 34.4682 37.7736 36.1139L29.1471 54.8921L25.926 67.7598L22.4553 69.4586L14.3061 87.1978L13.1031 95.6723L8.68773 99.4276L3.92057 109.805L2.53008 115.002Z" fill="#77B3EC"/>
<path id="Vector_11" d="M83.895 77.281L78.365 71.751C79.6457 73.0315 79.2576 75.1964 77.6119 75.9526L3.92073 109.805L0.68673 116.845C0.183229 117.941 1.31463 119.073 2.411 118.569L24.3175 108.506L28.9039 103.708L43.5884 99.6529L56.0937 93.9081L61.4218 88.7703L80.8565 82.5326L83.1419 81.4826C84.7876 80.7264 85.1757 78.5615 83.895 77.281Z" fill="#5E9AD8"/>
<path id="Vector_12" d="M63.5984 82.3905C48.1537 79.4102 35.3511 68.9232 29.1471 54.8916L22.4556 69.4581C28.3701 78.2304 36.5227 85.3749 46.0882 90.0653C49.2766 91.6289 54.0983 88.5494 57.5703 89.5369L63.5984 82.3905Z" fill="#FFE077"/>
<path id="Vector_13" d="M31.4356 97.3128C25.0083 95.1695 19.1878 91.6873 14.3066 87.1982L8.68848 99.428C10.9366 101.23 13.315 102.875 15.8075 104.347C18.5164 105.946 23.7368 103.837 26.6945 105.003L31.4356 97.3128Z" fill="#FFE077"/>
<path id="Vector_14" d="M102.771 14.4626L96.3208 12.4576C93.8883 11.7015 93.3786 8.48422 95.4585 7.01338L100.973 3.11337C101.799 2.52926 102.285 1.57634 102.272 0.564706L102.186 -6.18916C102.153 -8.73628 105.055 -10.2151 107.097 -8.69147L112.51 -4.65187C113.321 -4.0469 114.378 -3.8795 115.336 -4.20452L119.681 -5.67793L121.179 -5.82061C123.592 -6.63858 125.895 -4.33535 125.077 -1.92292L122.908 4.10492C122.583 5.06299 122.75 6.11944 123.355 6.93019L126.842 11.4218C128.365 13.4633 126.887 16.3656 124.339 16.3332L118.139 16.431C117.127 16.4182 116.174 16.9036 115.59 17.7296L112.427 22.507C110.956 24.587 107.739 24.0773 106.983 21.6448L105.752 19.5674L104.794 16.4851C104.493 15.5191 103.737 14.7627 102.771 14.4626Z" fill="#FFE077"/>
<path id="Vector_15" d="M56.0936 93.9078L80.8563 82.5321C78.1789 83.0023 75.4254 83.2493 72.6154 83.2493C69.5331 83.2493 66.5188 82.9532 63.5984 82.3896L46.481 90.2533C49.5514 91.7313 52.7638 92.9606 56.0936 93.9078Z" fill="#FFD05B"/>
<path id="Vector_16" d="M24.3174 108.506L43.5882 99.6527C39.2996 99.3982 35.1631 98.571 31.2526 97.249L15.8086 104.344C18.5172 105.943 21.3597 107.339 24.3174 108.506Z" fill="#FFD05B"/>
<g id="Group_8">
<path id="Vector_17" d="M125.445 17.0704C127.992 17.1028 129.471 14.2006 127.947 12.159L123.907 6.74591C123.302 5.93516 123.135 4.87871 123.46 3.92064L125.629 -2.47602C126.447 -4.88844 124.144 -7.19167 121.731 -6.37371L119.68 -5.67808L118.206 -1.33303C117.882 -0.375218 118.049 0.681489 118.654 1.49224L122.693 6.90533C124.217 8.94689 122.738 11.8492 120.191 11.8167L113.437 11.7304C112.426 11.7176 111.473 12.203 110.888 13.029L106.988 18.5438C106.651 19.0203 106.221 19.3546 105.751 19.5673L106.798 22.9349C107.554 25.3675 110.771 25.8771 112.242 23.7972L116.142 18.2824C116.726 17.4564 117.679 16.971 118.691 16.9838L125.445 17.0704Z" fill="#FFC344"/>
</g>
</g>
</svg>
