<svg width="12" height="10" viewBox="0 0 12 10" fill="none" xmlns="http://www.w3.org/2000/svg">
<path id="Shape" d="M11.7449 1.2858C11.3337 1.49296 10.9225 1.56201 10.4427 1.63106C10.9225 1.35485 11.2652 0.940531 11.4023 0.388106C10.991 0.664319 10.5113 0.802425 9.96295 0.940531C9.55172 0.526213 8.93487 0.25 8.31803 0.25C7.15288 0.25 6.1248 1.2858 6.1248 2.52875C6.1248 2.73591 6.1248 2.87402 6.19334 3.01213C4.3428 2.94307 2.62934 2.04538 1.53273 0.664319C1.32712 1.00958 1.25858 1.35485 1.25858 1.83822C1.25858 2.59781 1.66981 3.28834 2.28665 3.70266C1.94396 3.70266 1.60127 3.56455 1.25858 3.42645C1.25858 4.5313 2.0125 5.42899 3.04057 5.63615C2.83496 5.7052 2.62934 5.7052 2.42373 5.7052C2.28665 5.7052 2.14958 5.7052 2.0125 5.63615C2.28665 6.53384 3.10911 7.22437 4.13719 7.22437C3.38327 7.84585 2.42373 8.19111 1.32712 8.19111C1.1215 8.19111 0.984424 8.19111 0.778809 8.19111C1.80688 8.81259 2.97204 9.22691 4.20573 9.22691C8.31803 9.22691 10.5798 5.77425 10.5798 2.80497C10.5798 2.73591 10.5798 2.59781 10.5798 2.52875C11.0596 2.18349 11.4708 1.76917 11.7449 1.2858Z" fill="white"/>
</svg>
