<svg width="78" height="26" viewBox="0 0 78 26" fill="none" xmlns="http://www.w3.org/2000/svg">
<g id="Visa Inc. Logo" clip-path="url(#clip0_194_3651)">
<path id="path3789" d="M50.7666 0.838867C45.3102 0.838867 40.4341 3.66977 40.4341 8.90007C40.4341 14.8982 49.082 15.3125 49.082 18.3258C49.082 19.5946 47.6294 20.7304 45.1484 20.7304C41.6274 20.7304 38.9958 19.1434 38.9958 19.1434L37.8698 24.4213C37.8698 24.4213 40.9014 25.7619 44.9262 25.7619C50.8918 25.7619 55.586 22.792 55.586 17.4722C55.586 11.1341 46.902 10.7321 46.902 7.93525C46.902 6.94134 48.0945 5.85232 50.5684 5.85232C53.3597 5.85232 55.637 7.0065 55.637 7.0065L56.739 1.90889C56.739 1.90889 54.2611 0.838867 50.7666 0.838867ZM0.845988 1.22359L0.713867 1.99304C0.713867 1.99304 3.00937 2.41357 5.07685 3.25242C7.7389 4.21433 7.92853 4.77431 8.37686 6.51357L13.2623 25.3651H19.8113L29.9005 1.22359H23.3666L16.8836 17.6375L14.2382 3.72431C13.9956 2.13195 12.7667 1.22359 11.2625 1.22359H0.845988ZM32.5279 1.22359L27.4022 25.3651H33.6329L38.7406 1.22359H32.5279ZM67.2786 1.22359C65.7762 1.22359 64.9801 2.02876 64.396 3.43576L55.2677 25.3651H61.8016L63.0658 21.7102H71.0261L71.7948 25.3651H77.56L72.5304 1.22359H67.2786ZM68.1284 7.74589L70.0652 16.805H64.8764L68.1284 7.74589Z" fill="#1434CB"/>
</g>
<defs>
<clipPath id="clip0_194_3651">
<rect width="76.9231" height="25" fill="white" transform="translate(0.675781 0.800781)"/>
</clipPath>
</defs>
</svg>
