<svg width="25" height="25" viewBox="0 0 25 25" fill="none" xmlns="http://www.w3.org/2000/svg">
<g id="edit">
<path id="Vector" d="M11.4424 4.79883H4.44238C3.91195 4.79883 3.40324 5.00954 3.02817 5.38461C2.6531 5.75969 2.44238 6.2684 2.44238 6.79883V20.7988C2.44238 21.3293 2.6531 21.838 3.02817 22.213C3.40324 22.5881 3.91195 22.7988 4.44238 22.7988H18.4424C18.9728 22.7988 19.4815 22.5881 19.8566 22.213C20.2317 21.838 20.4424 21.3293 20.4424 20.7988V13.7988" stroke="#FF782D" stroke-width="2" stroke-linecap="round" stroke-linejoin="round"/>
<path id="Vector_2" d="M18.9424 3.29905C19.3402 2.90123 19.8798 2.67773 20.4424 2.67773C21.005 2.67773 21.5446 2.90123 21.9424 3.29905C22.3402 3.69688 22.5637 4.23645 22.5637 4.79905C22.5637 5.36166 22.3402 5.90123 21.9424 6.29905L12.4424 15.7991L8.44238 16.7991L9.44238 12.7991L18.9424 3.29905Z" stroke="#FF782D" stroke-width="2" stroke-linecap="round" stroke-linejoin="round"/>
</g>
</svg>
