<svg width="24" height="25" viewBox="0 0 24 25" fill="none" xmlns="http://www.w3.org/2000/svg">
<g id="trash-2">
<path id="Vector" d="M3 6.78906H5H21" stroke="black" stroke-width="2" stroke-linecap="round" stroke-linejoin="round"/>
<path id="Vector_2" d="M8 6.78906V4.78906C8 4.25863 8.21071 3.74992 8.58579 3.37485C8.96086 2.99978 9.46957 2.78906 10 2.78906H14C14.5304 2.78906 15.0391 2.99978 15.4142 3.37485C15.7893 3.74992 16 4.25863 16 4.78906V6.78906M19 6.78906V20.7891C19 21.3195 18.7893 21.8282 18.4142 22.2033C18.0391 22.5783 17.5304 22.7891 17 22.7891H7C6.46957 22.7891 5.96086 22.5783 5.58579 22.2033C5.21071 21.8282 5 21.3195 5 20.7891V6.78906H19Z" stroke="black" stroke-width="2" stroke-linecap="round" stroke-linejoin="round"/>
<path id="Vector_3" d="M10 11.7891V17.7891" stroke="black" stroke-width="2" stroke-linecap="round" stroke-linejoin="round"/>
<path id="Vector_4" d="M14 11.7891V17.7891" stroke="black" stroke-width="2" stroke-linecap="round" stroke-linejoin="round"/>
</g>
</svg>
